<mxfile host="app.diagrams.net" agent="Mozilla/5.0 (Windows NT 10.0; Win64; x64) AppleWebKit/537.36 (KHTML, like Gecko) Chrome/138.0.0.0 Safari/537.36" version="28.0.6">
  <diagram name="Page-1" id="rNx9mNzaCyzVuL6pEYur">
    <mxGraphModel dx="4525" dy="2250" grid="1" gridSize="10" guides="1" tooltips="1" connect="1" arrows="1" fold="1" page="1" pageScale="1" pageWidth="850" pageHeight="1100" math="0" shadow="0">
      <root>
        <mxCell id="0" />
        <mxCell id="1" parent="0" />
        <mxCell id="OCblu7KXCJCGsIi4Wwkh-1" value="ทบทวนสัญลักษณ์" style="swimlane;fontFamily=Sarabun;fontSource=https%3A%2F%2Ffonts.googleapis.com%2Fcss%3Ffamily%3DSarabun;" vertex="1" parent="1">
          <mxGeometry x="-720" y="20" width="640" height="290" as="geometry" />
        </mxCell>
        <mxCell id="OCblu7KXCJCGsIi4Wwkh-2" value="&lt;font data-font-src=&quot;https://fonts.googleapis.com/css?family=Sarabun&quot; face=&quot;Sarabun&quot;&gt;เริ่มต้น&lt;/font&gt;" style="ellipse;whiteSpace=wrap;html=1;" vertex="1" parent="OCblu7KXCJCGsIi4Wwkh-1">
          <mxGeometry x="20" y="40" width="130" height="30" as="geometry" />
        </mxCell>
        <mxCell id="OCblu7KXCJCGsIi4Wwkh-3" value="" style="endArrow=classic;html=1;rounded=0;" edge="1" parent="OCblu7KXCJCGsIi4Wwkh-1">
          <mxGeometry width="50" height="50" relative="1" as="geometry">
            <mxPoint x="84.5" y="70" as="sourcePoint" />
            <mxPoint x="84.5" y="120" as="targetPoint" />
          </mxGeometry>
        </mxCell>
        <mxCell id="OCblu7KXCJCGsIi4Wwkh-4" value="&lt;font face=&quot;Sarabun&quot;&gt;สิ้นสุด&lt;/font&gt;" style="ellipse;whiteSpace=wrap;html=1;" vertex="1" parent="OCblu7KXCJCGsIi4Wwkh-1">
          <mxGeometry x="150" y="90" width="130" height="30" as="geometry" />
        </mxCell>
        <mxCell id="OCblu7KXCJCGsIi4Wwkh-5" value="" style="endArrow=classic;html=1;rounded=0;" edge="1" parent="OCblu7KXCJCGsIi4Wwkh-1">
          <mxGeometry width="50" height="50" relative="1" as="geometry">
            <mxPoint x="214.5" y="40" as="sourcePoint" />
            <mxPoint x="214.5" y="90" as="targetPoint" />
          </mxGeometry>
        </mxCell>
        <mxCell id="OCblu7KXCJCGsIi4Wwkh-6" value="กระบวนการ" style="rounded=0;whiteSpace=wrap;html=1;fontFamily=Sarabun;fontSource=https%3A%2F%2Ffonts.googleapis.com%2Fcss%3Ffamily%3DSarabun;" vertex="1" parent="OCblu7KXCJCGsIi4Wwkh-1">
          <mxGeometry x="320" y="70" width="120" height="30" as="geometry" />
        </mxCell>
        <mxCell id="OCblu7KXCJCGsIi4Wwkh-7" value="" style="endArrow=classic;html=1;rounded=0;" edge="1" parent="OCblu7KXCJCGsIi4Wwkh-1">
          <mxGeometry width="50" height="50" relative="1" as="geometry">
            <mxPoint x="379" y="40" as="sourcePoint" />
            <mxPoint x="379.5" y="70" as="targetPoint" />
          </mxGeometry>
        </mxCell>
        <mxCell id="OCblu7KXCJCGsIi4Wwkh-8" value="" style="endArrow=classic;html=1;rounded=0;" edge="1" parent="OCblu7KXCJCGsIi4Wwkh-1">
          <mxGeometry width="50" height="50" relative="1" as="geometry">
            <mxPoint x="379.75" y="100" as="sourcePoint" />
            <mxPoint x="380.25" y="130" as="targetPoint" />
          </mxGeometry>
        </mxCell>
        <mxCell id="OCblu7KXCJCGsIi4Wwkh-9" value="ประโยคเงื่อนไข" style="rhombus;whiteSpace=wrap;html=1;fontFamily=Sarabun;fontSource=https%3A%2F%2Ffonts.googleapis.com%2Fcss%3Ffamily%3DSarabun;" vertex="1" parent="OCblu7KXCJCGsIi4Wwkh-1">
          <mxGeometry x="490" y="60" width="100" height="60" as="geometry" />
        </mxCell>
        <mxCell id="OCblu7KXCJCGsIi4Wwkh-10" value="" style="endArrow=classic;html=1;rounded=0;" edge="1" parent="OCblu7KXCJCGsIi4Wwkh-1">
          <mxGeometry width="50" height="50" relative="1" as="geometry">
            <mxPoint x="539.71" y="30" as="sourcePoint" />
            <mxPoint x="540.21" y="60" as="targetPoint" />
          </mxGeometry>
        </mxCell>
        <mxCell id="OCblu7KXCJCGsIi4Wwkh-11" value="" style="endArrow=classic;html=1;rounded=0;" edge="1" parent="OCblu7KXCJCGsIi4Wwkh-1">
          <mxGeometry width="50" height="50" relative="1" as="geometry">
            <mxPoint x="539.71" y="120" as="sourcePoint" />
            <mxPoint x="540" y="175" as="targetPoint" />
          </mxGeometry>
        </mxCell>
        <mxCell id="OCblu7KXCJCGsIi4Wwkh-12" value="จริง" style="edgeLabel;html=1;align=center;verticalAlign=middle;resizable=0;points=[];fontFamily=Sarabun;fontSource=https%3A%2F%2Ffonts.googleapis.com%2Fcss%3Ffamily%3DSarabun;" vertex="1" connectable="0" parent="OCblu7KXCJCGsIi4Wwkh-11">
          <mxGeometry x="-0.4142" y="-1" relative="1" as="geometry">
            <mxPoint as="offset" />
          </mxGeometry>
        </mxCell>
        <mxCell id="OCblu7KXCJCGsIi4Wwkh-13" value="" style="endArrow=classic;html=1;rounded=0;exitX=1;exitY=0.5;exitDx=0;exitDy=0;" edge="1" parent="OCblu7KXCJCGsIi4Wwkh-1" source="OCblu7KXCJCGsIi4Wwkh-9">
          <mxGeometry width="50" height="50" relative="1" as="geometry">
            <mxPoint x="620" y="95" as="sourcePoint" />
            <mxPoint x="610" y="175" as="targetPoint" />
            <Array as="points">
              <mxPoint x="610" y="90" />
            </Array>
          </mxGeometry>
        </mxCell>
        <mxCell id="OCblu7KXCJCGsIi4Wwkh-14" value="&lt;font data-font-src=&quot;https://fonts.googleapis.com/css?family=Sarabun&quot; face=&quot;Sarabun&quot;&gt;เท็จ&lt;/font&gt;" style="edgeLabel;html=1;align=center;verticalAlign=middle;resizable=0;points=[];" vertex="1" connectable="0" parent="OCblu7KXCJCGsIi4Wwkh-13">
          <mxGeometry x="-0.0019" y="-2" relative="1" as="geometry">
            <mxPoint as="offset" />
          </mxGeometry>
        </mxCell>
        <mxCell id="OCblu7KXCJCGsIi4Wwkh-15" value="&lt;font data-font-src=&quot;https://fonts.googleapis.com/css?family=Sarabun&quot; face=&quot;Sarabun&quot;&gt;ฟังก์ชัน/โมดูล&lt;/font&gt;" style="shape=process;whiteSpace=wrap;html=1;backgroundOutline=1;" vertex="1" parent="OCblu7KXCJCGsIi4Wwkh-1">
          <mxGeometry x="25" y="180" width="120" height="30" as="geometry" />
        </mxCell>
        <mxCell id="OCblu7KXCJCGsIi4Wwkh-16" value="" style="endArrow=classic;html=1;rounded=0;" edge="1" parent="OCblu7KXCJCGsIi4Wwkh-1">
          <mxGeometry width="50" height="50" relative="1" as="geometry">
            <mxPoint x="84.70999999999998" y="150" as="sourcePoint" />
            <mxPoint x="85.20999999999998" y="180" as="targetPoint" />
          </mxGeometry>
        </mxCell>
        <mxCell id="OCblu7KXCJCGsIi4Wwkh-17" value="" style="endArrow=classic;html=1;rounded=0;" edge="1" parent="OCblu7KXCJCGsIi4Wwkh-1">
          <mxGeometry width="50" height="50" relative="1" as="geometry">
            <mxPoint x="84.70999999999998" y="210" as="sourcePoint" />
            <mxPoint x="85.20999999999998" y="240" as="targetPoint" />
          </mxGeometry>
        </mxCell>
        <mxCell id="OCblu7KXCJCGsIi4Wwkh-18" value="" style="strokeWidth=2;html=1;shape=mxgraph.flowchart.start_2;whiteSpace=wrap;" vertex="1" parent="OCblu7KXCJCGsIi4Wwkh-1">
          <mxGeometry x="205" y="185" width="20" height="20" as="geometry" />
        </mxCell>
        <mxCell id="OCblu7KXCJCGsIi4Wwkh-19" value="" style="endArrow=classic;html=1;rounded=0;" edge="1" parent="OCblu7KXCJCGsIi4Wwkh-1">
          <mxGeometry width="50" height="50" relative="1" as="geometry">
            <mxPoint x="214.70999999999998" y="155" as="sourcePoint" />
            <mxPoint x="215.20999999999998" y="185" as="targetPoint" />
          </mxGeometry>
        </mxCell>
        <mxCell id="OCblu7KXCJCGsIi4Wwkh-20" value="" style="endArrow=classic;html=1;rounded=0;entryX=0;entryY=0.5;entryDx=0;entryDy=0;entryPerimeter=0;" edge="1" parent="OCblu7KXCJCGsIi4Wwkh-1" target="OCblu7KXCJCGsIi4Wwkh-18">
          <mxGeometry width="50" height="50" relative="1" as="geometry">
            <mxPoint x="189.99999999999997" y="155" as="sourcePoint" />
            <mxPoint x="190.49999999999997" y="185" as="targetPoint" />
            <Array as="points">
              <mxPoint x="190" y="180" />
            </Array>
          </mxGeometry>
        </mxCell>
        <mxCell id="OCblu7KXCJCGsIi4Wwkh-21" value="" style="endArrow=classic;html=1;rounded=0;entryX=1;entryY=0.5;entryDx=0;entryDy=0;entryPerimeter=0;" edge="1" parent="OCblu7KXCJCGsIi4Wwkh-1" target="OCblu7KXCJCGsIi4Wwkh-18">
          <mxGeometry width="50" height="50" relative="1" as="geometry">
            <mxPoint x="239.99999999999997" y="155" as="sourcePoint" />
            <mxPoint x="240.49999999999997" y="185" as="targetPoint" />
            <Array as="points">
              <mxPoint x="240" y="180" />
            </Array>
          </mxGeometry>
        </mxCell>
        <mxCell id="OCblu7KXCJCGsIi4Wwkh-22" value="" style="endArrow=classic;html=1;rounded=0;" edge="1" parent="OCblu7KXCJCGsIi4Wwkh-1">
          <mxGeometry width="50" height="50" relative="1" as="geometry">
            <mxPoint x="214.70999999999998" y="205" as="sourcePoint" />
            <mxPoint x="215.20999999999998" y="235" as="targetPoint" />
          </mxGeometry>
        </mxCell>
        <mxCell id="OCblu7KXCJCGsIi4Wwkh-23" value="&lt;font data-font-src=&quot;https://fonts.googleapis.com/css?family=Sarabun&quot; face=&quot;Sarabun&quot;&gt;ตัวเชื่อม&lt;/font&gt;" style="text;html=1;align=center;verticalAlign=middle;resizable=0;points=[];autosize=1;strokeColor=none;fillColor=none;" vertex="1" parent="OCblu7KXCJCGsIi4Wwkh-1">
          <mxGeometry x="220" y="190" width="60" height="30" as="geometry" />
        </mxCell>
        <mxCell id="OCblu7KXCJCGsIi4Wwkh-24" value="" style="endArrow=classic;html=1;rounded=0;" edge="1" parent="OCblu7KXCJCGsIi4Wwkh-1">
          <mxGeometry width="50" height="50" relative="1" as="geometry">
            <mxPoint x="353.71" y="165" as="sourcePoint" />
            <mxPoint x="354.21" y="195" as="targetPoint" />
          </mxGeometry>
        </mxCell>
        <mxCell id="OCblu7KXCJCGsIi4Wwkh-25" value="" style="verticalLabelPosition=bottom;verticalAlign=top;html=1;shape=offPageConnector;rounded=0;size=0.5;" vertex="1" parent="OCblu7KXCJCGsIi4Wwkh-1">
          <mxGeometry x="339" y="195" width="30" height="30" as="geometry" />
        </mxCell>
        <mxCell id="OCblu7KXCJCGsIi4Wwkh-26" value="" style="endArrow=classic;html=1;rounded=0;" edge="1" parent="OCblu7KXCJCGsIi4Wwkh-1">
          <mxGeometry width="50" height="50" relative="1" as="geometry">
            <mxPoint x="405.71" y="195" as="sourcePoint" />
            <mxPoint x="406.21" y="225" as="targetPoint" />
          </mxGeometry>
        </mxCell>
        <mxCell id="OCblu7KXCJCGsIi4Wwkh-27" value="" style="verticalLabelPosition=bottom;verticalAlign=top;html=1;shape=offPageConnector;rounded=0;size=0.5;" vertex="1" parent="OCblu7KXCJCGsIi4Wwkh-1">
          <mxGeometry x="391" y="165" width="30" height="30" as="geometry" />
        </mxCell>
        <mxCell id="OCblu7KXCJCGsIi4Wwkh-28" value="หน้าต่อไป" style="text;html=1;align=center;verticalAlign=middle;resizable=0;points=[];autosize=1;strokeColor=none;fillColor=none;fontFamily=Sarabun;fontSource=https%3A%2F%2Ffonts.googleapis.com%2Fcss%3Ffamily%3DSarabun;" vertex="1" parent="OCblu7KXCJCGsIi4Wwkh-1">
          <mxGeometry x="345" y="220" width="70" height="30" as="geometry" />
        </mxCell>
        <mxCell id="OCblu7KXCJCGsIi4Wwkh-29" value="ก" style="text;html=1;align=center;verticalAlign=middle;resizable=0;points=[];autosize=1;strokeColor=none;fillColor=none;fontFamily=Sarabun;fontSource=https%3A%2F%2Ffonts.googleapis.com%2Fcss%3Ffamily%3DSarabun;" vertex="1" parent="OCblu7KXCJCGsIi4Wwkh-1">
          <mxGeometry x="339" y="190" width="30" height="30" as="geometry" />
        </mxCell>
        <mxCell id="OCblu7KXCJCGsIi4Wwkh-30" value="ก" style="text;html=1;align=center;verticalAlign=middle;resizable=0;points=[];autosize=1;strokeColor=none;fillColor=none;fontFamily=Sarabun;fontSource=https%3A%2F%2Ffonts.googleapis.com%2Fcss%3Ffamily%3DSarabun;" vertex="1" parent="OCblu7KXCJCGsIi4Wwkh-1">
          <mxGeometry x="391" y="160" width="30" height="30" as="geometry" />
        </mxCell>
        <mxCell id="OCblu7KXCJCGsIi4Wwkh-31" value="แสดงผล/รับค่า" style="shape=parallelogram;perimeter=parallelogramPerimeter;whiteSpace=wrap;html=1;fixedSize=1;fontFamily=Sarabun;fontSource=https%3A%2F%2Ffonts.googleapis.com%2Fcss%3Ffamily%3DSarabun;" vertex="1" parent="OCblu7KXCJCGsIi4Wwkh-1">
          <mxGeometry x="450" y="210" width="120" height="30" as="geometry" />
        </mxCell>
        <mxCell id="OCblu7KXCJCGsIi4Wwkh-32" value="" style="endArrow=classic;html=1;rounded=0;" edge="1" parent="OCblu7KXCJCGsIi4Wwkh-1">
          <mxGeometry width="50" height="50" relative="1" as="geometry">
            <mxPoint x="509.71" y="180" as="sourcePoint" />
            <mxPoint x="510.21" y="210" as="targetPoint" />
          </mxGeometry>
        </mxCell>
        <mxCell id="OCblu7KXCJCGsIi4Wwkh-33" value="" style="endArrow=classic;html=1;rounded=0;" edge="1" parent="OCblu7KXCJCGsIi4Wwkh-1">
          <mxGeometry width="50" height="50" relative="1" as="geometry">
            <mxPoint x="509.71" y="240" as="sourcePoint" />
            <mxPoint x="510.21" y="270" as="targetPoint" />
          </mxGeometry>
        </mxCell>
        <mxCell id="OCblu7KXCJCGsIi4Wwkh-34" value="แก้ไขโจทย์ปัญหา" style="swimlane;fontFamily=Sarabun;fontSource=https%3A%2F%2Ffonts.googleapis.com%2Fcss%3Ffamily%3DSarabun;" vertex="1" parent="1">
          <mxGeometry x="-630" y="600" width="3920" height="2420" as="geometry" />
        </mxCell>
        <mxCell id="OCblu7KXCJCGsIi4Wwkh-35" style="edgeStyle=orthogonalEdgeStyle;rounded=0;orthogonalLoop=1;jettySize=auto;html=1;" edge="1" parent="OCblu7KXCJCGsIi4Wwkh-34">
          <mxGeometry relative="1" as="geometry">
            <mxPoint x="1050.000000000001" y="120" as="sourcePoint" />
            <mxPoint x="1050.0666666666666" y="150" as="targetPoint" />
          </mxGeometry>
        </mxCell>
        <mxCell id="OCblu7KXCJCGsIi4Wwkh-36" value="&lt;font style=&quot;font-size: 15px;&quot;&gt;เริ่มต้น&lt;/font&gt;" style="strokeWidth=1;html=1;shape=mxgraph.flowchart.terminator;whiteSpace=wrap;" vertex="1" parent="OCblu7KXCJCGsIi4Wwkh-34">
          <mxGeometry x="985" y="70" width="130" height="60" as="geometry" />
        </mxCell>
        <mxCell id="OCblu7KXCJCGsIi4Wwkh-37" value="" style="edgeStyle=orthogonalEdgeStyle;rounded=0;orthogonalLoop=1;jettySize=auto;html=1;" edge="1" parent="OCblu7KXCJCGsIi4Wwkh-34" source="OCblu7KXCJCGsIi4Wwkh-38">
          <mxGeometry relative="1" as="geometry">
            <mxPoint x="1050" y="250" as="targetPoint" />
          </mxGeometry>
        </mxCell>
        <mxCell id="OCblu7KXCJCGsIi4Wwkh-38" value="&lt;span style=&quot;font-family: Sarabun; font-size: 14px; text-align: left; text-wrap-mode: nowrap;&quot;&gt;โค้ก = 10 &lt;/span&gt;&lt;span style=&quot;font-family: Sarabun; font-size: 14px; text-align: left; text-wrap-mode: nowrap;&quot;&gt;&amp;nbsp;เมล็ดทานตะวัน =13 &lt;/span&gt;&lt;span style=&quot;font-family: Sarabun; font-size: 14px; text-align: left; text-wrap-mode: nowrap;&quot;&gt;น้ำเขียว = 12 &lt;/span&gt;&lt;span style=&quot;font-family: Sarabun; font-size: 14px; text-align: left; text-wrap-mode: nowrap;&quot;&gt;&amp;nbsp;ถั่วแปบ = 20&amp;nbsp;&lt;/span&gt;&lt;br style=&quot;font-family: Sarabun; font-size: 14px; text-align: left; text-wrap-mode: nowrap;&quot;&gt;&lt;span style=&quot;font-family: Sarabun; font-size: 14px; text-align: left; text-wrap-mode: nowrap;&quot;&gt;อเมริกาโน่ = 30 &lt;/span&gt;&lt;span style=&quot;font-family: Sarabun; font-size: 14px; text-align: left; text-wrap-mode: nowrap;&quot;&gt;&amp;nbsp;จิ้นส้มหมก = 15 &lt;/span&gt;&lt;span style=&quot;font-family: Sarabun; font-size: 14px; text-align: left; text-wrap-mode: nowrap;&quot;&gt;ลาเต้ หวานเจี๊ยบ = 35 &lt;/span&gt;&lt;span style=&quot;font-family: Sarabun; font-size: 14px; text-align: left; white-space: pre;&quot;&gt;&#x9;&lt;/span&gt;" style="rounded=0;whiteSpace=wrap;html=1;" vertex="1" parent="OCblu7KXCJCGsIi4Wwkh-34">
          <mxGeometry x="780" y="150" width="540" height="70" as="geometry" />
        </mxCell>
        <mxCell id="OCblu7KXCJCGsIi4Wwkh-39" value="" style="edgeStyle=orthogonalEdgeStyle;rounded=0;orthogonalLoop=1;jettySize=auto;html=1;" edge="1" parent="OCblu7KXCJCGsIi4Wwkh-34" source="OCblu7KXCJCGsIi4Wwkh-40" target="OCblu7KXCJCGsIi4Wwkh-42">
          <mxGeometry relative="1" as="geometry" />
        </mxCell>
        <mxCell id="OCblu7KXCJCGsIi4Wwkh-40" value="&lt;span style=&quot;font-family: Sarabun; font-size: 14px; text-align: left; text-wrap-mode: nowrap;&quot;&gt;กำหนดปริมาณ โค้ก = 10 &lt;/span&gt;&lt;span style=&quot;font-family: Sarabun; font-size: 14px; text-align: left; text-wrap-mode: nowrap;&quot;&gt;&amp;nbsp;เมล็ดทานตะวัน =13 &lt;/span&gt;&lt;span style=&quot;font-family: Sarabun; font-size: 14px; text-align: left; text-wrap-mode: nowrap;&quot;&gt;น้ำเขียว = 12 &lt;/span&gt;&lt;span style=&quot;font-family: Sarabun; font-size: 14px; text-align: left; text-wrap-mode: nowrap;&quot;&gt;&amp;nbsp;ถั่วแปบ = 20&amp;nbsp;&lt;/span&gt;&lt;br style=&quot;font-family: Sarabun; font-size: 14px; text-align: left; text-wrap-mode: nowrap;&quot;&gt;&lt;span style=&quot;font-family: Sarabun; font-size: 14px; text-align: left; text-wrap-mode: nowrap;&quot;&gt;อเมริกาโน่ = 30 &lt;/span&gt;&lt;span style=&quot;font-family: Sarabun; font-size: 14px; text-align: left; text-wrap-mode: nowrap;&quot;&gt;&amp;nbsp;จิ้นส้มหมก = 15 &lt;/span&gt;&lt;span style=&quot;font-family: Sarabun; font-size: 14px; text-align: left; text-wrap-mode: nowrap;&quot;&gt;ลาเต้ หวานเจี๊ยบ = 35 &lt;/span&gt;&lt;span style=&quot;font-family: Sarabun; font-size: 14px; text-align: left; white-space: pre;&quot;&gt;&#x9;&lt;/span&gt;" style="rounded=0;whiteSpace=wrap;html=1;" vertex="1" parent="OCblu7KXCJCGsIi4Wwkh-34">
          <mxGeometry x="780" y="250" width="540" height="70" as="geometry" />
        </mxCell>
        <mxCell id="OCblu7KXCJCGsIi4Wwkh-41" value="" style="edgeStyle=orthogonalEdgeStyle;rounded=0;orthogonalLoop=1;jettySize=auto;html=1;" edge="1" parent="OCblu7KXCJCGsIi4Wwkh-34" source="OCblu7KXCJCGsIi4Wwkh-42" target="OCblu7KXCJCGsIi4Wwkh-44">
          <mxGeometry relative="1" as="geometry" />
        </mxCell>
        <mxCell id="OCblu7KXCJCGsIi4Wwkh-42" value="&lt;span style=&quot;font-family: Sarabun; font-size: 14px; text-align: left; text-wrap-mode: nowrap;&quot;&gt;วันหมดอายุ โค้ก = 10 &lt;/span&gt;&lt;span style=&quot;font-family: Sarabun; font-size: 14px; text-align: left; text-wrap-mode: nowrap;&quot;&gt;&amp;nbsp;เมล็ดทานตะวัน =13 &lt;/span&gt;&lt;span style=&quot;font-family: Sarabun; font-size: 14px; text-align: left; text-wrap-mode: nowrap;&quot;&gt;น้ำเขียว = 12 &lt;/span&gt;&lt;span style=&quot;font-family: Sarabun; font-size: 14px; text-align: left; text-wrap-mode: nowrap;&quot;&gt;&amp;nbsp;ถั่วแปบ = 20&amp;nbsp;&lt;/span&gt;&lt;br style=&quot;font-family: Sarabun; font-size: 14px; text-align: left; text-wrap-mode: nowrap;&quot;&gt;&lt;span style=&quot;font-family: Sarabun; font-size: 14px; text-align: left; text-wrap-mode: nowrap;&quot;&gt;อเมริกาโน่ = 30 &lt;/span&gt;&lt;span style=&quot;font-family: Sarabun; font-size: 14px; text-align: left; text-wrap-mode: nowrap;&quot;&gt;&amp;nbsp;จิ้นส้มหมก = 15 &lt;/span&gt;&lt;span style=&quot;font-family: Sarabun; font-size: 14px; text-align: left; text-wrap-mode: nowrap;&quot;&gt;ลาเต้ หวานเจี๊ยบ = 35 &lt;/span&gt;&lt;span style=&quot;font-family: Sarabun; font-size: 14px; text-align: left; white-space: pre;&quot;&gt;&#x9;&lt;/span&gt;" style="rounded=0;whiteSpace=wrap;html=1;" vertex="1" parent="OCblu7KXCJCGsIi4Wwkh-34">
          <mxGeometry x="780" y="370" width="540" height="70" as="geometry" />
        </mxCell>
        <mxCell id="OCblu7KXCJCGsIi4Wwkh-43" value="" style="edgeStyle=orthogonalEdgeStyle;rounded=0;orthogonalLoop=1;jettySize=auto;html=1;" edge="1" parent="OCblu7KXCJCGsIi4Wwkh-34" source="OCblu7KXCJCGsIi4Wwkh-44" target="OCblu7KXCJCGsIi4Wwkh-46">
          <mxGeometry relative="1" as="geometry" />
        </mxCell>
        <mxCell id="OCblu7KXCJCGsIi4Wwkh-44" value="เหรียญ 1 = 50, 5 = 50, 10=50" style="rounded=0;whiteSpace=wrap;html=1;" vertex="1" parent="OCblu7KXCJCGsIi4Wwkh-34">
          <mxGeometry x="870" y="480" width="360" height="60" as="geometry" />
        </mxCell>
        <mxCell id="OCblu7KXCJCGsIi4Wwkh-45" value="" style="edgeStyle=orthogonalEdgeStyle;rounded=0;orthogonalLoop=1;jettySize=auto;html=1;" edge="1" parent="OCblu7KXCJCGsIi4Wwkh-34" source="OCblu7KXCJCGsIi4Wwkh-46" target="OCblu7KXCJCGsIi4Wwkh-48">
          <mxGeometry relative="1" as="geometry" />
        </mxCell>
        <mxCell id="OCblu7KXCJCGsIi4Wwkh-46" value="เหรียญ 20 = 20, 50 = 20, 100=50" style="rounded=0;whiteSpace=wrap;html=1;" vertex="1" parent="OCblu7KXCJCGsIi4Wwkh-34">
          <mxGeometry x="870" y="570" width="360" height="60" as="geometry" />
        </mxCell>
        <mxCell id="OCblu7KXCJCGsIi4Wwkh-47" value="" style="edgeStyle=orthogonalEdgeStyle;rounded=0;orthogonalLoop=1;jettySize=auto;html=1;" edge="1" parent="OCblu7KXCJCGsIi4Wwkh-34" source="OCblu7KXCJCGsIi4Wwkh-48" target="OCblu7KXCJCGsIi4Wwkh-176">
          <mxGeometry relative="1" as="geometry" />
        </mxCell>
        <mxCell id="OCblu7KXCJCGsIi4Wwkh-48" value="int a = 0" style="rounded=0;whiteSpace=wrap;html=1;" vertex="1" parent="OCblu7KXCJCGsIi4Wwkh-34">
          <mxGeometry x="990" y="660" width="120" height="60" as="geometry" />
        </mxCell>
        <mxCell id="OCblu7KXCJCGsIi4Wwkh-49" value="จำนวนเงินรวม" style="strokeWidth=2;html=1;shape=mxgraph.flowchart.annotation_2;align=left;labelPosition=right;pointerEvents=1;" vertex="1" parent="OCblu7KXCJCGsIi4Wwkh-34">
          <mxGeometry x="1110" y="670" width="80" height="40" as="geometry" />
        </mxCell>
        <mxCell id="OCblu7KXCJCGsIi4Wwkh-50" style="edgeStyle=orthogonalEdgeStyle;rounded=0;orthogonalLoop=1;jettySize=auto;html=1;entryX=0.5;entryY=0;entryDx=0;entryDy=0;fillColor=#d5e8d4;strokeColor=#82b366;" edge="1" parent="OCblu7KXCJCGsIi4Wwkh-34" source="OCblu7KXCJCGsIi4Wwkh-51" target="OCblu7KXCJCGsIi4Wwkh-161">
          <mxGeometry relative="1" as="geometry" />
        </mxCell>
        <mxCell id="OCblu7KXCJCGsIi4Wwkh-51" value="เเสดง ชื่อ&amp;nbsp;&lt;span style=&quot;font-family: Sarabun; font-size: 14px; text-align: left; text-wrap-mode: nowrap;&quot;&gt;ตะพาบลอย&lt;/span&gt;" style="shape=parallelogram;perimeter=parallelogramPerimeter;whiteSpace=wrap;html=1;fixedSize=1;" vertex="1" parent="OCblu7KXCJCGsIi4Wwkh-34">
          <mxGeometry x="955" y="950" width="190" height="60" as="geometry" />
        </mxCell>
        <mxCell id="OCblu7KXCJCGsIi4Wwkh-52" value="" style="verticalLabelPosition=bottom;verticalAlign=top;html=1;shape=offPageConnector;rounded=0;size=0.5;" vertex="1" parent="OCblu7KXCJCGsIi4Wwkh-34">
          <mxGeometry x="2340" y="125" width="30" height="30" as="geometry" />
        </mxCell>
        <mxCell id="OCblu7KXCJCGsIi4Wwkh-53" value="" style="edgeStyle=orthogonalEdgeStyle;rounded=0;orthogonalLoop=1;jettySize=auto;html=1;" edge="1" parent="OCblu7KXCJCGsIi4Wwkh-34" source="OCblu7KXCJCGsIi4Wwkh-54" target="OCblu7KXCJCGsIi4Wwkh-185">
          <mxGeometry relative="1" as="geometry" />
        </mxCell>
        <mxCell id="OCblu7KXCJCGsIi4Wwkh-54" value="ก" style="text;html=1;align=center;verticalAlign=middle;resizable=0;points=[];autosize=1;strokeColor=none;fillColor=none;fontFamily=Sarabun;fontSource=https%3A%2F%2Ffonts.googleapis.com%2Fcss%3Ffamily%3DSarabun;" vertex="1" parent="OCblu7KXCJCGsIi4Wwkh-34">
          <mxGeometry x="2340" y="120" width="30" height="30" as="geometry" />
        </mxCell>
        <mxCell id="OCblu7KXCJCGsIi4Wwkh-55" style="edgeStyle=orthogonalEdgeStyle;rounded=0;orthogonalLoop=1;jettySize=auto;html=1;exitX=0;exitY=0.5;exitDx=0;exitDy=0;entryX=0.5;entryY=0;entryDx=0;entryDy=0;" edge="1" parent="OCblu7KXCJCGsIi4Wwkh-34" source="OCblu7KXCJCGsIi4Wwkh-57" target="OCblu7KXCJCGsIi4Wwkh-59">
          <mxGeometry relative="1" as="geometry" />
        </mxCell>
        <mxCell id="OCblu7KXCJCGsIi4Wwkh-56" style="edgeStyle=orthogonalEdgeStyle;rounded=0;orthogonalLoop=1;jettySize=auto;html=1;exitX=1;exitY=0.5;exitDx=0;exitDy=0;entryX=0.5;entryY=0;entryDx=0;entryDy=0;" edge="1" parent="OCblu7KXCJCGsIi4Wwkh-34" source="OCblu7KXCJCGsIi4Wwkh-57">
          <mxGeometry relative="1" as="geometry">
            <mxPoint x="1115" y="1160" as="targetPoint" />
          </mxGeometry>
        </mxCell>
        <mxCell id="OCblu7KXCJCGsIi4Wwkh-57" value="เลือกสินค้า" style="rhombus;whiteSpace=wrap;html=1;" vertex="1" parent="OCblu7KXCJCGsIi4Wwkh-34">
          <mxGeometry x="870" y="1050" width="140" height="100" as="geometry" />
        </mxCell>
        <mxCell id="OCblu7KXCJCGsIi4Wwkh-58" value="" style="edgeStyle=orthogonalEdgeStyle;rounded=0;orthogonalLoop=1;jettySize=auto;html=1;" edge="1" parent="OCblu7KXCJCGsIi4Wwkh-34" source="OCblu7KXCJCGsIi4Wwkh-59" target="OCblu7KXCJCGsIi4Wwkh-62">
          <mxGeometry relative="1" as="geometry" />
        </mxCell>
        <mxCell id="OCblu7KXCJCGsIi4Wwkh-59" value="น้ำ" style="rhombus;whiteSpace=wrap;html=1;" vertex="1" parent="OCblu7KXCJCGsIi4Wwkh-34">
          <mxGeometry x="670" y="1150" width="130" height="80" as="geometry" />
        </mxCell>
        <mxCell id="OCblu7KXCJCGsIi4Wwkh-60" value="" style="edgeStyle=orthogonalEdgeStyle;rounded=0;orthogonalLoop=1;jettySize=auto;html=1;" edge="1" parent="OCblu7KXCJCGsIi4Wwkh-34" source="OCblu7KXCJCGsIi4Wwkh-62" target="OCblu7KXCJCGsIi4Wwkh-65">
          <mxGeometry relative="1" as="geometry" />
        </mxCell>
        <mxCell id="OCblu7KXCJCGsIi4Wwkh-61" value="" style="edgeStyle=orthogonalEdgeStyle;rounded=0;orthogonalLoop=1;jettySize=auto;html=1;" edge="1" parent="OCblu7KXCJCGsIi4Wwkh-34" source="OCblu7KXCJCGsIi4Wwkh-62" target="OCblu7KXCJCGsIi4Wwkh-72">
          <mxGeometry relative="1" as="geometry" />
        </mxCell>
        <mxCell id="OCblu7KXCJCGsIi4Wwkh-62" value="โค้ก" style="rhombus;whiteSpace=wrap;html=1;" vertex="1" parent="OCblu7KXCJCGsIi4Wwkh-34">
          <mxGeometry x="190" y="1270" width="130" height="80" as="geometry" />
        </mxCell>
        <mxCell id="OCblu7KXCJCGsIi4Wwkh-63" value="" style="edgeStyle=orthogonalEdgeStyle;rounded=0;orthogonalLoop=1;jettySize=auto;html=1;" edge="1" parent="OCblu7KXCJCGsIi4Wwkh-34" source="OCblu7KXCJCGsIi4Wwkh-65" target="OCblu7KXCJCGsIi4Wwkh-68">
          <mxGeometry relative="1" as="geometry" />
        </mxCell>
        <mxCell id="OCblu7KXCJCGsIi4Wwkh-64" value="" style="edgeStyle=orthogonalEdgeStyle;rounded=0;orthogonalLoop=1;jettySize=auto;html=1;" edge="1" parent="OCblu7KXCJCGsIi4Wwkh-34" source="OCblu7KXCJCGsIi4Wwkh-65" target="OCblu7KXCJCGsIi4Wwkh-75">
          <mxGeometry relative="1" as="geometry" />
        </mxCell>
        <mxCell id="OCblu7KXCJCGsIi4Wwkh-65" value="น้ำเขียว" style="rhombus;whiteSpace=wrap;html=1;" vertex="1" parent="OCblu7KXCJCGsIi4Wwkh-34">
          <mxGeometry x="190" y="1390" width="130" height="80" as="geometry" />
        </mxCell>
        <mxCell id="OCblu7KXCJCGsIi4Wwkh-66" value="" style="edgeStyle=orthogonalEdgeStyle;rounded=0;orthogonalLoop=1;jettySize=auto;html=1;" edge="1" parent="OCblu7KXCJCGsIi4Wwkh-34" source="OCblu7KXCJCGsIi4Wwkh-68">
          <mxGeometry relative="1" as="geometry">
            <mxPoint x="255" y="1720" as="targetPoint" />
          </mxGeometry>
        </mxCell>
        <mxCell id="OCblu7KXCJCGsIi4Wwkh-67" value="" style="edgeStyle=orthogonalEdgeStyle;rounded=0;orthogonalLoop=1;jettySize=auto;html=1;" edge="1" parent="OCblu7KXCJCGsIi4Wwkh-34" source="OCblu7KXCJCGsIi4Wwkh-68" target="OCblu7KXCJCGsIi4Wwkh-78">
          <mxGeometry relative="1" as="geometry" />
        </mxCell>
        <mxCell id="OCblu7KXCJCGsIi4Wwkh-68" value="อเมริกาโน่" style="rhombus;whiteSpace=wrap;html=1;" vertex="1" parent="OCblu7KXCJCGsIi4Wwkh-34">
          <mxGeometry x="190" y="1540" width="130" height="80" as="geometry" />
        </mxCell>
        <mxCell id="OCblu7KXCJCGsIi4Wwkh-69" value="" style="edgeStyle=orthogonalEdgeStyle;rounded=0;orthogonalLoop=1;jettySize=auto;html=1;" edge="1" parent="OCblu7KXCJCGsIi4Wwkh-34" target="OCblu7KXCJCGsIi4Wwkh-81">
          <mxGeometry relative="1" as="geometry">
            <mxPoint x="320" y="1760" as="sourcePoint" />
          </mxGeometry>
        </mxCell>
        <mxCell id="OCblu7KXCJCGsIi4Wwkh-70" value="" style="edgeStyle=orthogonalEdgeStyle;rounded=0;orthogonalLoop=1;jettySize=auto;html=1;" edge="1" parent="OCblu7KXCJCGsIi4Wwkh-34" source="OCblu7KXCJCGsIi4Wwkh-72" target="OCblu7KXCJCGsIi4Wwkh-84">
          <mxGeometry relative="1" as="geometry" />
        </mxCell>
        <mxCell id="OCblu7KXCJCGsIi4Wwkh-71" style="edgeStyle=orthogonalEdgeStyle;rounded=0;orthogonalLoop=1;jettySize=auto;html=1;entryX=0.5;entryY=0;entryDx=0;entryDy=0;" edge="1" parent="OCblu7KXCJCGsIi4Wwkh-34" source="OCblu7KXCJCGsIi4Wwkh-72" target="OCblu7KXCJCGsIi4Wwkh-132">
          <mxGeometry relative="1" as="geometry">
            <Array as="points">
              <mxPoint x="435" y="1250" />
              <mxPoint x="960" y="1250" />
            </Array>
          </mxGeometry>
        </mxCell>
        <mxCell id="OCblu7KXCJCGsIi4Wwkh-72" value="มีสินค้าหรือไม่" style="rhombus;whiteSpace=wrap;html=1;" vertex="1" parent="OCblu7KXCJCGsIi4Wwkh-34">
          <mxGeometry x="370" y="1270" width="130" height="80" as="geometry" />
        </mxCell>
        <mxCell id="OCblu7KXCJCGsIi4Wwkh-73" value="" style="edgeStyle=orthogonalEdgeStyle;rounded=0;orthogonalLoop=1;jettySize=auto;html=1;" edge="1" parent="OCblu7KXCJCGsIi4Wwkh-34" source="OCblu7KXCJCGsIi4Wwkh-75" target="OCblu7KXCJCGsIi4Wwkh-86">
          <mxGeometry relative="1" as="geometry" />
        </mxCell>
        <mxCell id="OCblu7KXCJCGsIi4Wwkh-74" style="edgeStyle=orthogonalEdgeStyle;rounded=0;orthogonalLoop=1;jettySize=auto;html=1;exitX=0.5;exitY=1;exitDx=0;exitDy=0;entryX=0;entryY=0.5;entryDx=0;entryDy=0;" edge="1" parent="OCblu7KXCJCGsIi4Wwkh-34" source="OCblu7KXCJCGsIi4Wwkh-75" target="OCblu7KXCJCGsIi4Wwkh-132">
          <mxGeometry relative="1" as="geometry" />
        </mxCell>
        <mxCell id="OCblu7KXCJCGsIi4Wwkh-75" value="มีสินค้าหรือไม่" style="rhombus;whiteSpace=wrap;html=1;" vertex="1" parent="OCblu7KXCJCGsIi4Wwkh-34">
          <mxGeometry x="370" y="1390" width="130" height="80" as="geometry" />
        </mxCell>
        <mxCell id="OCblu7KXCJCGsIi4Wwkh-76" value="" style="edgeStyle=orthogonalEdgeStyle;rounded=0;orthogonalLoop=1;jettySize=auto;html=1;" edge="1" parent="OCblu7KXCJCGsIi4Wwkh-34" source="OCblu7KXCJCGsIi4Wwkh-78" target="OCblu7KXCJCGsIi4Wwkh-89">
          <mxGeometry relative="1" as="geometry" />
        </mxCell>
        <mxCell id="OCblu7KXCJCGsIi4Wwkh-77" style="edgeStyle=orthogonalEdgeStyle;rounded=0;orthogonalLoop=1;jettySize=auto;html=1;exitX=0.5;exitY=1;exitDx=0;exitDy=0;entryX=0.5;entryY=1;entryDx=0;entryDy=0;" edge="1" parent="OCblu7KXCJCGsIi4Wwkh-34" source="OCblu7KXCJCGsIi4Wwkh-78" target="OCblu7KXCJCGsIi4Wwkh-132">
          <mxGeometry relative="1" as="geometry">
            <Array as="points">
              <mxPoint x="435" y="1660" />
              <mxPoint x="960" y="1660" />
            </Array>
          </mxGeometry>
        </mxCell>
        <mxCell id="OCblu7KXCJCGsIi4Wwkh-78" value="มีสินค้าหรือไม่" style="rhombus;whiteSpace=wrap;html=1;" vertex="1" parent="OCblu7KXCJCGsIi4Wwkh-34">
          <mxGeometry x="370" y="1540" width="130" height="80" as="geometry" />
        </mxCell>
        <mxCell id="OCblu7KXCJCGsIi4Wwkh-79" value="" style="edgeStyle=orthogonalEdgeStyle;rounded=0;orthogonalLoop=1;jettySize=auto;html=1;" edge="1" parent="OCblu7KXCJCGsIi4Wwkh-34" source="OCblu7KXCJCGsIi4Wwkh-81" target="OCblu7KXCJCGsIi4Wwkh-91">
          <mxGeometry relative="1" as="geometry" />
        </mxCell>
        <mxCell id="OCblu7KXCJCGsIi4Wwkh-80" style="edgeStyle=orthogonalEdgeStyle;rounded=0;orthogonalLoop=1;jettySize=auto;html=1;exitX=0.5;exitY=0;exitDx=0;exitDy=0;entryX=0;entryY=1;entryDx=0;entryDy=0;" edge="1" parent="OCblu7KXCJCGsIi4Wwkh-34" source="OCblu7KXCJCGsIi4Wwkh-81" target="OCblu7KXCJCGsIi4Wwkh-132">
          <mxGeometry relative="1" as="geometry">
            <Array as="points">
              <mxPoint x="435" y="1680" />
              <mxPoint x="939" y="1680" />
            </Array>
          </mxGeometry>
        </mxCell>
        <mxCell id="OCblu7KXCJCGsIi4Wwkh-81" value="มีสินค้าหรือไม่" style="rhombus;whiteSpace=wrap;html=1;" vertex="1" parent="OCblu7KXCJCGsIi4Wwkh-34">
          <mxGeometry x="370" y="1720" width="130" height="80" as="geometry" />
        </mxCell>
        <mxCell id="OCblu7KXCJCGsIi4Wwkh-82" value="" style="edgeStyle=orthogonalEdgeStyle;rounded=0;orthogonalLoop=1;jettySize=auto;html=1;" edge="1" parent="OCblu7KXCJCGsIi4Wwkh-34" source="OCblu7KXCJCGsIi4Wwkh-84" target="OCblu7KXCJCGsIi4Wwkh-93">
          <mxGeometry relative="1" as="geometry" />
        </mxCell>
        <mxCell id="OCblu7KXCJCGsIi4Wwkh-83" style="edgeStyle=orthogonalEdgeStyle;rounded=0;orthogonalLoop=1;jettySize=auto;html=1;exitX=0.5;exitY=0;exitDx=0;exitDy=0;entryX=0;entryY=0;entryDx=0;entryDy=0;" edge="1" parent="OCblu7KXCJCGsIi4Wwkh-34" source="OCblu7KXCJCGsIi4Wwkh-84" target="OCblu7KXCJCGsIi4Wwkh-132">
          <mxGeometry relative="1" as="geometry" />
        </mxCell>
        <mxCell id="OCblu7KXCJCGsIi4Wwkh-84" value="หมดอายุมั้ย" style="rhombus;whiteSpace=wrap;html=1;" vertex="1" parent="OCblu7KXCJCGsIi4Wwkh-34">
          <mxGeometry x="560" y="1280" width="130" height="80" as="geometry" />
        </mxCell>
        <mxCell id="OCblu7KXCJCGsIi4Wwkh-85" value="" style="edgeStyle=orthogonalEdgeStyle;rounded=0;orthogonalLoop=1;jettySize=auto;html=1;" edge="1" parent="OCblu7KXCJCGsIi4Wwkh-34" source="OCblu7KXCJCGsIi4Wwkh-86" target="OCblu7KXCJCGsIi4Wwkh-95">
          <mxGeometry relative="1" as="geometry" />
        </mxCell>
        <mxCell id="OCblu7KXCJCGsIi4Wwkh-86" value="หมดอายุมั้ย" style="rhombus;whiteSpace=wrap;html=1;" vertex="1" parent="OCblu7KXCJCGsIi4Wwkh-34">
          <mxGeometry x="570" y="1400" width="130" height="80" as="geometry" />
        </mxCell>
        <mxCell id="OCblu7KXCJCGsIi4Wwkh-87" value="" style="edgeStyle=orthogonalEdgeStyle;rounded=0;orthogonalLoop=1;jettySize=auto;html=1;" edge="1" parent="OCblu7KXCJCGsIi4Wwkh-34" source="OCblu7KXCJCGsIi4Wwkh-89" target="OCblu7KXCJCGsIi4Wwkh-97">
          <mxGeometry relative="1" as="geometry" />
        </mxCell>
        <mxCell id="OCblu7KXCJCGsIi4Wwkh-88" style="edgeStyle=orthogonalEdgeStyle;rounded=0;orthogonalLoop=1;jettySize=auto;html=1;exitX=0.5;exitY=1;exitDx=0;exitDy=0;entryX=1;entryY=1;entryDx=0;entryDy=0;" edge="1" parent="OCblu7KXCJCGsIi4Wwkh-34" source="OCblu7KXCJCGsIi4Wwkh-89" target="OCblu7KXCJCGsIi4Wwkh-132">
          <mxGeometry relative="1" as="geometry">
            <Array as="points">
              <mxPoint x="625" y="1650" />
              <mxPoint x="980" y="1650" />
              <mxPoint x="980" y="1551" />
            </Array>
          </mxGeometry>
        </mxCell>
        <mxCell id="OCblu7KXCJCGsIi4Wwkh-89" value="หมดอายุมั้ย" style="rhombus;whiteSpace=wrap;html=1;" vertex="1" parent="OCblu7KXCJCGsIi4Wwkh-34">
          <mxGeometry x="560" y="1550" width="130" height="80" as="geometry" />
        </mxCell>
        <mxCell id="OCblu7KXCJCGsIi4Wwkh-90" value="" style="edgeStyle=orthogonalEdgeStyle;rounded=0;orthogonalLoop=1;jettySize=auto;html=1;" edge="1" parent="OCblu7KXCJCGsIi4Wwkh-34" source="OCblu7KXCJCGsIi4Wwkh-91" target="OCblu7KXCJCGsIi4Wwkh-98">
          <mxGeometry relative="1" as="geometry" />
        </mxCell>
        <mxCell id="OCblu7KXCJCGsIi4Wwkh-91" value="หมดอายุมั้ย" style="rhombus;whiteSpace=wrap;html=1;" vertex="1" parent="OCblu7KXCJCGsIi4Wwkh-34">
          <mxGeometry x="570" y="1730" width="130" height="80" as="geometry" />
        </mxCell>
        <mxCell id="OCblu7KXCJCGsIi4Wwkh-92" style="edgeStyle=orthogonalEdgeStyle;rounded=0;orthogonalLoop=1;jettySize=auto;html=1;exitX=1;exitY=0.5;exitDx=0;exitDy=0;entryX=0;entryY=0.5;entryDx=0;entryDy=0;fillColor=#f8cecc;strokeColor=#b85450;" edge="1" parent="OCblu7KXCJCGsIi4Wwkh-34" source="OCblu7KXCJCGsIi4Wwkh-93" target="OCblu7KXCJCGsIi4Wwkh-163">
          <mxGeometry relative="1" as="geometry">
            <Array as="points">
              <mxPoint x="930" y="1330" />
              <mxPoint x="930" y="1810" />
            </Array>
          </mxGeometry>
        </mxCell>
        <mxCell id="OCblu7KXCJCGsIi4Wwkh-93" value="โค้ก +1" style="rounded=0;whiteSpace=wrap;html=1;" vertex="1" parent="OCblu7KXCJCGsIi4Wwkh-34">
          <mxGeometry x="730" y="1300" width="120" height="60" as="geometry" />
        </mxCell>
        <mxCell id="OCblu7KXCJCGsIi4Wwkh-94" style="edgeStyle=orthogonalEdgeStyle;rounded=0;orthogonalLoop=1;jettySize=auto;html=1;exitX=1;exitY=0.5;exitDx=0;exitDy=0;entryX=0;entryY=0.5;entryDx=0;entryDy=0;fillColor=#f8cecc;strokeColor=#b85450;" edge="1" parent="OCblu7KXCJCGsIi4Wwkh-34" source="OCblu7KXCJCGsIi4Wwkh-95" target="OCblu7KXCJCGsIi4Wwkh-163">
          <mxGeometry relative="1" as="geometry">
            <Array as="points">
              <mxPoint x="940" y="1460" />
              <mxPoint x="940" y="1810" />
            </Array>
          </mxGeometry>
        </mxCell>
        <mxCell id="OCblu7KXCJCGsIi4Wwkh-95" value="น้ำเขียว +1" style="rounded=0;whiteSpace=wrap;html=1;" vertex="1" parent="OCblu7KXCJCGsIi4Wwkh-34">
          <mxGeometry x="750" y="1430" width="120" height="60" as="geometry" />
        </mxCell>
        <mxCell id="OCblu7KXCJCGsIi4Wwkh-96" style="edgeStyle=orthogonalEdgeStyle;rounded=0;orthogonalLoop=1;jettySize=auto;html=1;exitX=1;exitY=0.5;exitDx=0;exitDy=0;entryX=0;entryY=0;entryDx=0;entryDy=0;fillColor=#f8cecc;strokeColor=#b85450;" edge="1" parent="OCblu7KXCJCGsIi4Wwkh-34" source="OCblu7KXCJCGsIi4Wwkh-97" target="OCblu7KXCJCGsIi4Wwkh-163">
          <mxGeometry relative="1" as="geometry">
            <Array as="points">
              <mxPoint x="1040" y="1600" />
              <mxPoint x="1040" y="1789" />
            </Array>
          </mxGeometry>
        </mxCell>
        <mxCell id="OCblu7KXCJCGsIi4Wwkh-97" value="อเมริกาโน่ +1" style="rounded=0;whiteSpace=wrap;html=1;" vertex="1" parent="OCblu7KXCJCGsIi4Wwkh-34">
          <mxGeometry x="740" y="1570" width="120" height="60" as="geometry" />
        </mxCell>
        <mxCell id="OCblu7KXCJCGsIi4Wwkh-98" value="ลาเต่หวานเจี๊ยบ +1" style="rounded=0;whiteSpace=wrap;html=1;" vertex="1" parent="OCblu7KXCJCGsIi4Wwkh-34">
          <mxGeometry x="800" y="1750" width="120" height="60" as="geometry" />
        </mxCell>
        <mxCell id="OCblu7KXCJCGsIi4Wwkh-99" style="edgeStyle=orthogonalEdgeStyle;rounded=0;orthogonalLoop=1;jettySize=auto;html=1;exitX=1;exitY=0.5;exitDx=0;exitDy=0;entryX=0.5;entryY=0;entryDx=0;entryDy=0;" edge="1" parent="OCblu7KXCJCGsIi4Wwkh-34" source="OCblu7KXCJCGsIi4Wwkh-100" target="OCblu7KXCJCGsIi4Wwkh-103">
          <mxGeometry relative="1" as="geometry" />
        </mxCell>
        <mxCell id="OCblu7KXCJCGsIi4Wwkh-100" value="ขนม" style="rhombus;whiteSpace=wrap;html=1;" vertex="1" parent="OCblu7KXCJCGsIi4Wwkh-34">
          <mxGeometry x="1050.8600000000001" y="1160" width="130" height="80" as="geometry" />
        </mxCell>
        <mxCell id="OCblu7KXCJCGsIi4Wwkh-101" value="" style="edgeStyle=orthogonalEdgeStyle;rounded=0;orthogonalLoop=1;jettySize=auto;html=1;" edge="1" parent="OCblu7KXCJCGsIi4Wwkh-34" source="OCblu7KXCJCGsIi4Wwkh-103" target="OCblu7KXCJCGsIi4Wwkh-106">
          <mxGeometry relative="1" as="geometry" />
        </mxCell>
        <mxCell id="OCblu7KXCJCGsIi4Wwkh-102" value="" style="edgeStyle=orthogonalEdgeStyle;rounded=0;orthogonalLoop=1;jettySize=auto;html=1;" edge="1" parent="OCblu7KXCJCGsIi4Wwkh-34" source="OCblu7KXCJCGsIi4Wwkh-103" target="OCblu7KXCJCGsIi4Wwkh-110">
          <mxGeometry relative="1" as="geometry" />
        </mxCell>
        <mxCell id="OCblu7KXCJCGsIi4Wwkh-103" value="เมล็ดทานตะวัน" style="rhombus;whiteSpace=wrap;html=1;" vertex="1" parent="OCblu7KXCJCGsIi4Wwkh-34">
          <mxGeometry x="1050.8600000000001" y="1310" width="130" height="80" as="geometry" />
        </mxCell>
        <mxCell id="OCblu7KXCJCGsIi4Wwkh-104" value="" style="edgeStyle=orthogonalEdgeStyle;rounded=0;orthogonalLoop=1;jettySize=auto;html=1;" edge="1" parent="OCblu7KXCJCGsIi4Wwkh-34" source="OCblu7KXCJCGsIi4Wwkh-106">
          <mxGeometry relative="1" as="geometry">
            <mxPoint x="1115.8600000000001" y="1580" as="targetPoint" />
          </mxGeometry>
        </mxCell>
        <mxCell id="OCblu7KXCJCGsIi4Wwkh-105" value="" style="edgeStyle=orthogonalEdgeStyle;rounded=0;orthogonalLoop=1;jettySize=auto;html=1;" edge="1" parent="OCblu7KXCJCGsIi4Wwkh-34" source="OCblu7KXCJCGsIi4Wwkh-106" target="OCblu7KXCJCGsIi4Wwkh-113">
          <mxGeometry relative="1" as="geometry" />
        </mxCell>
        <mxCell id="OCblu7KXCJCGsIi4Wwkh-106" value="ถั่วเเปบ" style="rhombus;whiteSpace=wrap;html=1;" vertex="1" parent="OCblu7KXCJCGsIi4Wwkh-34">
          <mxGeometry x="1050.8600000000001" y="1430" width="130" height="80" as="geometry" />
        </mxCell>
        <mxCell id="OCblu7KXCJCGsIi4Wwkh-107" value="" style="edgeStyle=orthogonalEdgeStyle;rounded=0;orthogonalLoop=1;jettySize=auto;html=1;" edge="1" parent="OCblu7KXCJCGsIi4Wwkh-34" target="OCblu7KXCJCGsIi4Wwkh-116">
          <mxGeometry relative="1" as="geometry">
            <mxPoint x="1180.8600000000001" y="1620" as="sourcePoint" />
          </mxGeometry>
        </mxCell>
        <mxCell id="OCblu7KXCJCGsIi4Wwkh-108" value="" style="edgeStyle=orthogonalEdgeStyle;rounded=0;orthogonalLoop=1;jettySize=auto;html=1;" edge="1" parent="OCblu7KXCJCGsIi4Wwkh-34" source="OCblu7KXCJCGsIi4Wwkh-110" target="OCblu7KXCJCGsIi4Wwkh-119">
          <mxGeometry relative="1" as="geometry" />
        </mxCell>
        <mxCell id="OCblu7KXCJCGsIi4Wwkh-109" style="edgeStyle=orthogonalEdgeStyle;rounded=0;orthogonalLoop=1;jettySize=auto;html=1;exitX=0.5;exitY=1;exitDx=0;exitDy=0;entryX=0.5;entryY=0;entryDx=0;entryDy=0;" edge="1" parent="OCblu7KXCJCGsIi4Wwkh-34" source="OCblu7KXCJCGsIi4Wwkh-110" target="OCblu7KXCJCGsIi4Wwkh-132">
          <mxGeometry relative="1" as="geometry">
            <Array as="points">
              <mxPoint x="1296" y="1420" />
              <mxPoint x="990" y="1420" />
            </Array>
          </mxGeometry>
        </mxCell>
        <mxCell id="OCblu7KXCJCGsIi4Wwkh-110" value="มีสินค้าหรือไม่" style="rhombus;whiteSpace=wrap;html=1;" vertex="1" parent="OCblu7KXCJCGsIi4Wwkh-34">
          <mxGeometry x="1230.86" y="1310" width="130" height="80" as="geometry" />
        </mxCell>
        <mxCell id="OCblu7KXCJCGsIi4Wwkh-111" value="" style="edgeStyle=orthogonalEdgeStyle;rounded=0;orthogonalLoop=1;jettySize=auto;html=1;" edge="1" parent="OCblu7KXCJCGsIi4Wwkh-34" source="OCblu7KXCJCGsIi4Wwkh-113" target="OCblu7KXCJCGsIi4Wwkh-121">
          <mxGeometry relative="1" as="geometry" />
        </mxCell>
        <mxCell id="OCblu7KXCJCGsIi4Wwkh-112" style="edgeStyle=orthogonalEdgeStyle;rounded=0;orthogonalLoop=1;jettySize=auto;html=1;exitX=0.5;exitY=1;exitDx=0;exitDy=0;entryX=1;entryY=0.5;entryDx=0;entryDy=0;" edge="1" parent="OCblu7KXCJCGsIi4Wwkh-34" source="OCblu7KXCJCGsIi4Wwkh-113" target="OCblu7KXCJCGsIi4Wwkh-132">
          <mxGeometry relative="1" as="geometry" />
        </mxCell>
        <mxCell id="OCblu7KXCJCGsIi4Wwkh-113" value="มีสินค้าหรือไม่" style="rhombus;whiteSpace=wrap;html=1;" vertex="1" parent="OCblu7KXCJCGsIi4Wwkh-34">
          <mxGeometry x="1230.86" y="1430" width="130" height="80" as="geometry" />
        </mxCell>
        <mxCell id="OCblu7KXCJCGsIi4Wwkh-114" value="" style="edgeStyle=orthogonalEdgeStyle;rounded=0;orthogonalLoop=1;jettySize=auto;html=1;" edge="1" parent="OCblu7KXCJCGsIi4Wwkh-34" source="OCblu7KXCJCGsIi4Wwkh-116" target="OCblu7KXCJCGsIi4Wwkh-124">
          <mxGeometry relative="1" as="geometry" />
        </mxCell>
        <mxCell id="OCblu7KXCJCGsIi4Wwkh-115" style="edgeStyle=orthogonalEdgeStyle;rounded=0;orthogonalLoop=1;jettySize=auto;html=1;exitX=0.5;exitY=0;exitDx=0;exitDy=0;entryX=1;entryY=1;entryDx=0;entryDy=0;" edge="1" parent="OCblu7KXCJCGsIi4Wwkh-34" source="OCblu7KXCJCGsIi4Wwkh-116" target="OCblu7KXCJCGsIi4Wwkh-132">
          <mxGeometry relative="1" as="geometry">
            <Array as="points">
              <mxPoint x="1296" y="1560" />
              <mxPoint x="1011" y="1560" />
            </Array>
          </mxGeometry>
        </mxCell>
        <mxCell id="OCblu7KXCJCGsIi4Wwkh-116" value="มีสินค้าหรือไม่" style="rhombus;whiteSpace=wrap;html=1;" vertex="1" parent="OCblu7KXCJCGsIi4Wwkh-34">
          <mxGeometry x="1230.86" y="1580" width="130" height="80" as="geometry" />
        </mxCell>
        <mxCell id="OCblu7KXCJCGsIi4Wwkh-117" value="" style="edgeStyle=orthogonalEdgeStyle;rounded=0;orthogonalLoop=1;jettySize=auto;html=1;" edge="1" parent="OCblu7KXCJCGsIi4Wwkh-34" source="OCblu7KXCJCGsIi4Wwkh-119" target="OCblu7KXCJCGsIi4Wwkh-126">
          <mxGeometry relative="1" as="geometry" />
        </mxCell>
        <mxCell id="OCblu7KXCJCGsIi4Wwkh-118" style="edgeStyle=orthogonalEdgeStyle;rounded=0;orthogonalLoop=1;jettySize=auto;html=1;exitX=0.5;exitY=1;exitDx=0;exitDy=0;entryX=1;entryY=0;entryDx=0;entryDy=0;" edge="1" parent="OCblu7KXCJCGsIi4Wwkh-34" source="OCblu7KXCJCGsIi4Wwkh-119" target="OCblu7KXCJCGsIi4Wwkh-132">
          <mxGeometry relative="1" as="geometry">
            <Array as="points">
              <mxPoint x="1486" y="1410" />
              <mxPoint x="1011" y="1410" />
            </Array>
          </mxGeometry>
        </mxCell>
        <mxCell id="OCblu7KXCJCGsIi4Wwkh-119" value="หมดอายุมั้ย" style="rhombus;whiteSpace=wrap;html=1;" vertex="1" parent="OCblu7KXCJCGsIi4Wwkh-34">
          <mxGeometry x="1420.86" y="1320" width="130" height="80" as="geometry" />
        </mxCell>
        <mxCell id="OCblu7KXCJCGsIi4Wwkh-120" value="" style="edgeStyle=orthogonalEdgeStyle;rounded=0;orthogonalLoop=1;jettySize=auto;html=1;" edge="1" parent="OCblu7KXCJCGsIi4Wwkh-34" source="OCblu7KXCJCGsIi4Wwkh-121" target="OCblu7KXCJCGsIi4Wwkh-128">
          <mxGeometry relative="1" as="geometry" />
        </mxCell>
        <mxCell id="OCblu7KXCJCGsIi4Wwkh-121" value="หมดอายุมั้ย" style="rhombus;whiteSpace=wrap;html=1;" vertex="1" parent="OCblu7KXCJCGsIi4Wwkh-34">
          <mxGeometry x="1430.86" y="1440" width="130" height="80" as="geometry" />
        </mxCell>
        <mxCell id="OCblu7KXCJCGsIi4Wwkh-122" style="edgeStyle=orthogonalEdgeStyle;rounded=0;orthogonalLoop=1;jettySize=auto;html=1;exitX=0.5;exitY=0;exitDx=0;exitDy=0;" edge="1" parent="OCblu7KXCJCGsIi4Wwkh-34" source="OCblu7KXCJCGsIi4Wwkh-124">
          <mxGeometry relative="1" as="geometry">
            <mxPoint x="1000" y="1560" as="targetPoint" />
          </mxGeometry>
        </mxCell>
        <mxCell id="OCblu7KXCJCGsIi4Wwkh-123" style="edgeStyle=orthogonalEdgeStyle;rounded=0;orthogonalLoop=1;jettySize=auto;html=1;exitX=1;exitY=0.5;exitDx=0;exitDy=0;entryX=0;entryY=0.5;entryDx=0;entryDy=0;" edge="1" parent="OCblu7KXCJCGsIi4Wwkh-34" source="OCblu7KXCJCGsIi4Wwkh-124" target="OCblu7KXCJCGsIi4Wwkh-130">
          <mxGeometry relative="1" as="geometry" />
        </mxCell>
        <mxCell id="OCblu7KXCJCGsIi4Wwkh-124" value="หมดอายุมั้ย" style="rhombus;whiteSpace=wrap;html=1;" vertex="1" parent="OCblu7KXCJCGsIi4Wwkh-34">
          <mxGeometry x="1420.86" y="1590" width="130" height="80" as="geometry" />
        </mxCell>
        <mxCell id="OCblu7KXCJCGsIi4Wwkh-125" style="edgeStyle=orthogonalEdgeStyle;rounded=0;orthogonalLoop=1;jettySize=auto;html=1;entryX=1;entryY=0.5;entryDx=0;entryDy=0;fillColor=#f8cecc;strokeColor=#b85450;" edge="1" parent="OCblu7KXCJCGsIi4Wwkh-34" source="OCblu7KXCJCGsIi4Wwkh-126" target="OCblu7KXCJCGsIi4Wwkh-163">
          <mxGeometry relative="1" as="geometry">
            <Array as="points">
              <mxPoint x="1850" y="1370" />
              <mxPoint x="1850" y="1810" />
            </Array>
          </mxGeometry>
        </mxCell>
        <mxCell id="OCblu7KXCJCGsIi4Wwkh-126" value="โค้ก +1" style="rounded=0;whiteSpace=wrap;html=1;" vertex="1" parent="OCblu7KXCJCGsIi4Wwkh-34">
          <mxGeometry x="1590.86" y="1340" width="120" height="60" as="geometry" />
        </mxCell>
        <mxCell id="OCblu7KXCJCGsIi4Wwkh-127" style="edgeStyle=orthogonalEdgeStyle;rounded=0;orthogonalLoop=1;jettySize=auto;html=1;exitX=1;exitY=0.5;exitDx=0;exitDy=0;fillColor=#f8cecc;strokeColor=#b85450;" edge="1" parent="OCblu7KXCJCGsIi4Wwkh-34" source="OCblu7KXCJCGsIi4Wwkh-128">
          <mxGeometry relative="1" as="geometry">
            <mxPoint x="1120" y="1810" as="targetPoint" />
            <Array as="points">
              <mxPoint x="1800" y="1500" />
              <mxPoint x="1800" y="1750" />
              <mxPoint x="1121" y="1750" />
              <mxPoint x="1121" y="1810" />
            </Array>
          </mxGeometry>
        </mxCell>
        <mxCell id="OCblu7KXCJCGsIi4Wwkh-128" value="น้ำเขียว +1" style="rounded=0;whiteSpace=wrap;html=1;" vertex="1" parent="OCblu7KXCJCGsIi4Wwkh-34">
          <mxGeometry x="1610.86" y="1470" width="120" height="60" as="geometry" />
        </mxCell>
        <mxCell id="OCblu7KXCJCGsIi4Wwkh-129" style="edgeStyle=orthogonalEdgeStyle;rounded=0;orthogonalLoop=1;jettySize=auto;html=1;exitX=1;exitY=0.5;exitDx=0;exitDy=0;fillColor=#f8cecc;strokeColor=#b85450;" edge="1" parent="OCblu7KXCJCGsIi4Wwkh-34" source="OCblu7KXCJCGsIi4Wwkh-130" target="OCblu7KXCJCGsIi4Wwkh-163">
          <mxGeometry relative="1" as="geometry" />
        </mxCell>
        <mxCell id="OCblu7KXCJCGsIi4Wwkh-130" value="อเมริกาโน่ +1" style="rounded=0;whiteSpace=wrap;html=1;" vertex="1" parent="OCblu7KXCJCGsIi4Wwkh-34">
          <mxGeometry x="1640" y="1615" width="120" height="60" as="geometry" />
        </mxCell>
        <mxCell id="OCblu7KXCJCGsIi4Wwkh-131" style="edgeStyle=orthogonalEdgeStyle;rounded=0;orthogonalLoop=1;jettySize=auto;html=1;exitX=0.5;exitY=1;exitDx=0;exitDy=0;entryX=0;entryY=0.5;entryDx=0;entryDy=0;fillColor=#d5e8d4;strokeColor=#82b366;" edge="1" parent="OCblu7KXCJCGsIi4Wwkh-34" source="OCblu7KXCJCGsIi4Wwkh-132" target="OCblu7KXCJCGsIi4Wwkh-161">
          <mxGeometry relative="1" as="geometry">
            <Array as="points">
              <mxPoint x="990" y="1840" />
              <mxPoint x="90" y="1840" />
              <mxPoint x="90" y="1010" />
            </Array>
          </mxGeometry>
        </mxCell>
        <mxCell id="OCblu7KXCJCGsIi4Wwkh-132" value="" style="ellipse;whiteSpace=wrap;html=1;aspect=fixed;" vertex="1" parent="OCblu7KXCJCGsIi4Wwkh-34">
          <mxGeometry x="960" y="1500" width="60" height="60" as="geometry" />
        </mxCell>
        <mxCell id="OCblu7KXCJCGsIi4Wwkh-133" value="ไม่มี" style="text;html=1;align=center;verticalAlign=middle;whiteSpace=wrap;rounded=0;" vertex="1" parent="OCblu7KXCJCGsIi4Wwkh-34">
          <mxGeometry x="455" y="1220" width="60" height="30" as="geometry" />
        </mxCell>
        <mxCell id="OCblu7KXCJCGsIi4Wwkh-134" value="ไม่มี" style="text;html=1;align=center;verticalAlign=middle;whiteSpace=wrap;rounded=0;" vertex="1" parent="OCblu7KXCJCGsIi4Wwkh-34">
          <mxGeometry x="430" y="1490" width="60" height="30" as="geometry" />
        </mxCell>
        <mxCell id="OCblu7KXCJCGsIi4Wwkh-135" value="ไม่มี" style="text;html=1;align=center;verticalAlign=middle;whiteSpace=wrap;rounded=0;" vertex="1" parent="OCblu7KXCJCGsIi4Wwkh-34">
          <mxGeometry x="455" y="1630" width="60" height="30" as="geometry" />
        </mxCell>
        <mxCell id="OCblu7KXCJCGsIi4Wwkh-136" value="ไม่มี" style="text;html=1;align=center;verticalAlign=middle;whiteSpace=wrap;rounded=0;" vertex="1" parent="OCblu7KXCJCGsIi4Wwkh-34">
          <mxGeometry x="450" y="1690" width="60" height="30" as="geometry" />
        </mxCell>
        <mxCell id="OCblu7KXCJCGsIi4Wwkh-137" value="มี" style="text;html=1;align=center;verticalAlign=middle;whiteSpace=wrap;rounded=0;" vertex="1" parent="OCblu7KXCJCGsIi4Wwkh-34">
          <mxGeometry x="510" y="1780" width="60" height="30" as="geometry" />
        </mxCell>
        <mxCell id="OCblu7KXCJCGsIi4Wwkh-138" value="มี" style="text;html=1;align=center;verticalAlign=middle;whiteSpace=wrap;rounded=0;" vertex="1" parent="OCblu7KXCJCGsIi4Wwkh-34">
          <mxGeometry x="490" y="1550" width="60" height="30" as="geometry" />
        </mxCell>
        <mxCell id="OCblu7KXCJCGsIi4Wwkh-139" value="มี" style="text;html=1;align=center;verticalAlign=middle;whiteSpace=wrap;rounded=0;" vertex="1" parent="OCblu7KXCJCGsIi4Wwkh-34">
          <mxGeometry x="500" y="1390" width="60" height="30" as="geometry" />
        </mxCell>
        <mxCell id="OCblu7KXCJCGsIi4Wwkh-140" value="มี" style="text;html=1;align=center;verticalAlign=middle;whiteSpace=wrap;rounded=0;" vertex="1" parent="OCblu7KXCJCGsIi4Wwkh-34">
          <mxGeometry x="500" y="1280" width="60" height="30" as="geometry" />
        </mxCell>
        <mxCell id="OCblu7KXCJCGsIi4Wwkh-141" style="edgeStyle=orthogonalEdgeStyle;rounded=0;orthogonalLoop=1;jettySize=auto;html=1;exitX=0.5;exitY=1;exitDx=0;exitDy=0;entryX=-0.012;entryY=0.372;entryDx=0;entryDy=0;entryPerimeter=0;" edge="1" parent="OCblu7KXCJCGsIi4Wwkh-34" source="OCblu7KXCJCGsIi4Wwkh-86" target="OCblu7KXCJCGsIi4Wwkh-132">
          <mxGeometry relative="1" as="geometry" />
        </mxCell>
        <mxCell id="OCblu7KXCJCGsIi4Wwkh-142" style="edgeStyle=orthogonalEdgeStyle;rounded=0;orthogonalLoop=1;jettySize=auto;html=1;exitX=0.5;exitY=0;exitDx=0;exitDy=0;entryX=0.361;entryY=0.994;entryDx=0;entryDy=0;entryPerimeter=0;" edge="1" parent="OCblu7KXCJCGsIi4Wwkh-34" source="OCblu7KXCJCGsIi4Wwkh-91" target="OCblu7KXCJCGsIi4Wwkh-132">
          <mxGeometry relative="1" as="geometry">
            <Array as="points">
              <mxPoint x="635" y="1710" />
              <mxPoint x="952" y="1710" />
            </Array>
          </mxGeometry>
        </mxCell>
        <mxCell id="OCblu7KXCJCGsIi4Wwkh-143" value="หมด" style="text;html=1;align=center;verticalAlign=middle;whiteSpace=wrap;rounded=0;" vertex="1" parent="OCblu7KXCJCGsIi4Wwkh-34">
          <mxGeometry x="670" y="1710" width="60" height="30" as="geometry" />
        </mxCell>
        <mxCell id="OCblu7KXCJCGsIi4Wwkh-144" value="หมด" style="text;html=1;align=center;verticalAlign=middle;whiteSpace=wrap;rounded=0;" vertex="1" parent="OCblu7KXCJCGsIi4Wwkh-34">
          <mxGeometry x="650" y="1625" width="60" height="30" as="geometry" />
        </mxCell>
        <mxCell id="OCblu7KXCJCGsIi4Wwkh-145" value="หมด" style="text;html=1;align=center;verticalAlign=middle;whiteSpace=wrap;rounded=0;" vertex="1" parent="OCblu7KXCJCGsIi4Wwkh-34">
          <mxGeometry x="660" y="1490" width="60" height="30" as="geometry" />
        </mxCell>
        <mxCell id="OCblu7KXCJCGsIi4Wwkh-146" value="หมด" style="text;html=1;align=center;verticalAlign=middle;whiteSpace=wrap;rounded=0;" vertex="1" parent="OCblu7KXCJCGsIi4Wwkh-34">
          <mxGeometry x="620" y="1260" width="60" height="30" as="geometry" />
        </mxCell>
        <mxCell id="OCblu7KXCJCGsIi4Wwkh-147" value="ไม่" style="text;html=1;align=center;verticalAlign=middle;whiteSpace=wrap;rounded=0;" vertex="1" parent="OCblu7KXCJCGsIi4Wwkh-34">
          <mxGeometry x="670" y="1320" width="60" height="30" as="geometry" />
        </mxCell>
        <mxCell id="OCblu7KXCJCGsIi4Wwkh-148" value="ไม่" style="text;html=1;align=center;verticalAlign=middle;whiteSpace=wrap;rounded=0;" vertex="1" parent="OCblu7KXCJCGsIi4Wwkh-34">
          <mxGeometry x="690" y="1415" width="60" height="30" as="geometry" />
        </mxCell>
        <mxCell id="OCblu7KXCJCGsIi4Wwkh-149" value="ไม่" style="text;html=1;align=center;verticalAlign=middle;whiteSpace=wrap;rounded=0;" vertex="1" parent="OCblu7KXCJCGsIi4Wwkh-34">
          <mxGeometry x="680" y="1560" width="60" height="30" as="geometry" />
        </mxCell>
        <mxCell id="OCblu7KXCJCGsIi4Wwkh-150" value="ไม่" style="text;html=1;align=center;verticalAlign=middle;whiteSpace=wrap;rounded=0;" vertex="1" parent="OCblu7KXCJCGsIi4Wwkh-34">
          <mxGeometry x="720" y="1780" width="60" height="30" as="geometry" />
        </mxCell>
        <mxCell id="OCblu7KXCJCGsIi4Wwkh-151" style="edgeStyle=orthogonalEdgeStyle;rounded=0;orthogonalLoop=1;jettySize=auto;html=1;exitX=0.5;exitY=1;exitDx=0;exitDy=0;entryX=1.064;entryY=0.717;entryDx=0;entryDy=0;entryPerimeter=0;" edge="1" parent="OCblu7KXCJCGsIi4Wwkh-34" source="OCblu7KXCJCGsIi4Wwkh-121" target="OCblu7KXCJCGsIi4Wwkh-132">
          <mxGeometry relative="1" as="geometry" />
        </mxCell>
        <mxCell id="OCblu7KXCJCGsIi4Wwkh-152" value="มี" style="text;html=1;align=center;verticalAlign=middle;whiteSpace=wrap;rounded=0;" vertex="1" parent="OCblu7KXCJCGsIi4Wwkh-34">
          <mxGeometry x="1350" y="1315" width="60" height="30" as="geometry" />
        </mxCell>
        <mxCell id="OCblu7KXCJCGsIi4Wwkh-153" value="มี" style="text;html=1;align=center;verticalAlign=middle;whiteSpace=wrap;rounded=0;" vertex="1" parent="OCblu7KXCJCGsIi4Wwkh-34">
          <mxGeometry x="1360.8600000000001" y="1440" width="60" height="30" as="geometry" />
        </mxCell>
        <mxCell id="OCblu7KXCJCGsIi4Wwkh-154" value="มี" style="text;html=1;align=center;verticalAlign=middle;whiteSpace=wrap;rounded=0;" vertex="1" parent="OCblu7KXCJCGsIi4Wwkh-34">
          <mxGeometry x="1350" y="1585" width="60" height="30" as="geometry" />
        </mxCell>
        <mxCell id="OCblu7KXCJCGsIi4Wwkh-155" value="ไม่" style="text;html=1;align=center;verticalAlign=middle;whiteSpace=wrap;rounded=0;" vertex="1" parent="OCblu7KXCJCGsIi4Wwkh-34">
          <mxGeometry x="1560.8600000000001" y="1595" width="60" height="30" as="geometry" />
        </mxCell>
        <mxCell id="OCblu7KXCJCGsIi4Wwkh-156" value="ไม่" style="text;html=1;align=center;verticalAlign=middle;whiteSpace=wrap;rounded=0;" vertex="1" parent="OCblu7KXCJCGsIi4Wwkh-34">
          <mxGeometry x="1560.8600000000001" y="1450" width="60" height="30" as="geometry" />
        </mxCell>
        <mxCell id="OCblu7KXCJCGsIi4Wwkh-157" value="ไม่" style="text;html=1;align=center;verticalAlign=middle;whiteSpace=wrap;rounded=0;" vertex="1" parent="OCblu7KXCJCGsIi4Wwkh-34">
          <mxGeometry x="1550.8600000000001" y="1330" width="60" height="30" as="geometry" />
        </mxCell>
        <mxCell id="OCblu7KXCJCGsIi4Wwkh-158" value="หมด" style="text;html=1;align=center;verticalAlign=middle;whiteSpace=wrap;rounded=0;" vertex="1" parent="OCblu7KXCJCGsIi4Wwkh-34">
          <mxGeometry x="1430.8600000000001" y="1510" width="60" height="30" as="geometry" />
        </mxCell>
        <mxCell id="OCblu7KXCJCGsIi4Wwkh-159" value="หมด" style="text;html=1;align=center;verticalAlign=middle;whiteSpace=wrap;rounded=0;" vertex="1" parent="OCblu7KXCJCGsIi4Wwkh-34">
          <mxGeometry x="1430.8600000000001" y="1565" width="60" height="30" as="geometry" />
        </mxCell>
        <mxCell id="OCblu7KXCJCGsIi4Wwkh-160" style="edgeStyle=orthogonalEdgeStyle;rounded=0;orthogonalLoop=1;jettySize=auto;html=1;exitX=1;exitY=1;exitDx=0;exitDy=0;" edge="1" parent="OCblu7KXCJCGsIi4Wwkh-34" source="OCblu7KXCJCGsIi4Wwkh-161" target="OCblu7KXCJCGsIi4Wwkh-57">
          <mxGeometry relative="1" as="geometry">
            <Array as="points">
              <mxPoint x="868" y="1060" />
              <mxPoint x="900" y="1060" />
              <mxPoint x="900" y="1030" />
              <mxPoint x="940" y="1030" />
            </Array>
          </mxGeometry>
        </mxCell>
        <mxCell id="OCblu7KXCJCGsIi4Wwkh-161" value="" style="ellipse;whiteSpace=wrap;html=1;aspect=fixed;" vertex="1" parent="OCblu7KXCJCGsIi4Wwkh-34">
          <mxGeometry x="800" y="980" width="80" height="80" as="geometry" />
        </mxCell>
        <mxCell id="OCblu7KXCJCGsIi4Wwkh-162" value="" style="edgeStyle=orthogonalEdgeStyle;rounded=0;orthogonalLoop=1;jettySize=auto;html=1;" edge="1" parent="OCblu7KXCJCGsIi4Wwkh-34" source="OCblu7KXCJCGsIi4Wwkh-163" target="OCblu7KXCJCGsIi4Wwkh-166">
          <mxGeometry relative="1" as="geometry" />
        </mxCell>
        <mxCell id="OCblu7KXCJCGsIi4Wwkh-163" value="" style="ellipse;whiteSpace=wrap;html=1;aspect=fixed;fillColor=#f8cecc;strokeColor=#b85450;" vertex="1" parent="OCblu7KXCJCGsIi4Wwkh-34">
          <mxGeometry x="1060" y="1780" width="60" height="60" as="geometry" />
        </mxCell>
        <mxCell id="OCblu7KXCJCGsIi4Wwkh-164" style="edgeStyle=orthogonalEdgeStyle;rounded=0;orthogonalLoop=1;jettySize=auto;html=1;exitX=1;exitY=0.5;exitDx=0;exitDy=0;entryX=0.05;entryY=0.304;entryDx=0;entryDy=0;entryPerimeter=0;fillColor=#f8cecc;strokeColor=#b85450;" edge="1" parent="OCblu7KXCJCGsIi4Wwkh-34" source="OCblu7KXCJCGsIi4Wwkh-98" target="OCblu7KXCJCGsIi4Wwkh-163">
          <mxGeometry relative="1" as="geometry" />
        </mxCell>
        <mxCell id="OCblu7KXCJCGsIi4Wwkh-165" style="edgeStyle=orthogonalEdgeStyle;rounded=0;orthogonalLoop=1;jettySize=auto;html=1;exitX=0.5;exitY=1;exitDx=0;exitDy=0;entryX=0.5;entryY=0;entryDx=0;entryDy=0;" edge="1" parent="OCblu7KXCJCGsIi4Wwkh-34" source="OCblu7KXCJCGsIi4Wwkh-166" target="OCblu7KXCJCGsIi4Wwkh-168">
          <mxGeometry relative="1" as="geometry" />
        </mxCell>
        <mxCell id="OCblu7KXCJCGsIi4Wwkh-166" value="ราค้าสินค้า + b" style="rounded=0;whiteSpace=wrap;html=1;" vertex="1" parent="OCblu7KXCJCGsIi4Wwkh-34">
          <mxGeometry x="1030" y="1880" width="120" height="60" as="geometry" />
        </mxCell>
        <mxCell id="OCblu7KXCJCGsIi4Wwkh-167" value="" style="edgeStyle=orthogonalEdgeStyle;rounded=0;orthogonalLoop=1;jettySize=auto;html=1;" edge="1" parent="OCblu7KXCJCGsIi4Wwkh-34" source="OCblu7KXCJCGsIi4Wwkh-168" target="OCblu7KXCJCGsIi4Wwkh-179">
          <mxGeometry relative="1" as="geometry" />
        </mxCell>
        <mxCell id="OCblu7KXCJCGsIi4Wwkh-168" value="เเสดง b" style="shape=parallelogram;perimeter=parallelogramPerimeter;whiteSpace=wrap;html=1;fixedSize=1;" vertex="1" parent="OCblu7KXCJCGsIi4Wwkh-34">
          <mxGeometry x="1015" y="1960" width="150" height="60" as="geometry" />
        </mxCell>
        <mxCell id="OCblu7KXCJCGsIi4Wwkh-169" style="edgeStyle=orthogonalEdgeStyle;rounded=0;orthogonalLoop=1;jettySize=auto;html=1;exitX=0;exitY=0.5;exitDx=0;exitDy=0;entryX=0;entryY=1;entryDx=0;entryDy=0;fillColor=#d5e8d4;strokeColor=#82b366;" edge="1" parent="OCblu7KXCJCGsIi4Wwkh-34" source="OCblu7KXCJCGsIi4Wwkh-171" target="OCblu7KXCJCGsIi4Wwkh-161">
          <mxGeometry relative="1" as="geometry">
            <Array as="points">
              <mxPoint x="160" y="2190" />
              <mxPoint x="160" y="1038" />
              <mxPoint x="812" y="1038" />
            </Array>
          </mxGeometry>
        </mxCell>
        <mxCell id="OCblu7KXCJCGsIi4Wwkh-294" value="" style="edgeStyle=orthogonalEdgeStyle;rounded=0;orthogonalLoop=1;jettySize=auto;html=1;" edge="1" parent="OCblu7KXCJCGsIi4Wwkh-34" source="OCblu7KXCJCGsIi4Wwkh-171" target="OCblu7KXCJCGsIi4Wwkh-173">
          <mxGeometry relative="1" as="geometry" />
        </mxCell>
        <mxCell id="OCblu7KXCJCGsIi4Wwkh-171" value="ซื้อสินค้าต่อไหม" style="rhombus;whiteSpace=wrap;html=1;" vertex="1" parent="OCblu7KXCJCGsIi4Wwkh-34">
          <mxGeometry x="985" y="2150" width="200" height="80" as="geometry" />
        </mxCell>
        <mxCell id="OCblu7KXCJCGsIi4Wwkh-172" value="" style="verticalLabelPosition=bottom;verticalAlign=top;html=1;shape=offPageConnector;rounded=0;size=0.5;" vertex="1" parent="OCblu7KXCJCGsIi4Wwkh-34">
          <mxGeometry x="1070.0000000000002" y="2262.5" width="30" height="30" as="geometry" />
        </mxCell>
        <mxCell id="OCblu7KXCJCGsIi4Wwkh-173" value="ก" style="text;html=1;align=center;verticalAlign=middle;resizable=0;points=[];autosize=1;strokeColor=none;fillColor=none;fontFamily=Sarabun;fontSource=https%3A%2F%2Ffonts.googleapis.com%2Fcss%3Ffamily%3DSarabun;" vertex="1" parent="OCblu7KXCJCGsIi4Wwkh-34">
          <mxGeometry x="1070.0000000000002" y="2260" width="30" height="30" as="geometry" />
        </mxCell>
        <mxCell id="OCblu7KXCJCGsIi4Wwkh-174" value="หมด" style="text;html=1;align=center;verticalAlign=middle;whiteSpace=wrap;rounded=0;" vertex="1" parent="OCblu7KXCJCGsIi4Wwkh-34">
          <mxGeometry x="1400" y="1380" width="60" height="30" as="geometry" />
        </mxCell>
        <mxCell id="OCblu7KXCJCGsIi4Wwkh-175" value="" style="edgeStyle=orthogonalEdgeStyle;rounded=0;orthogonalLoop=1;jettySize=auto;html=1;" edge="1" parent="OCblu7KXCJCGsIi4Wwkh-34" source="OCblu7KXCJCGsIi4Wwkh-176" target="OCblu7KXCJCGsIi4Wwkh-285">
          <mxGeometry relative="1" as="geometry" />
        </mxCell>
        <mxCell id="OCblu7KXCJCGsIi4Wwkh-176" value="int b = 0" style="rounded=0;whiteSpace=wrap;html=1;" vertex="1" parent="OCblu7KXCJCGsIi4Wwkh-34">
          <mxGeometry x="990" y="750" width="120" height="60" as="geometry" />
        </mxCell>
        <mxCell id="OCblu7KXCJCGsIi4Wwkh-177" value="" style="strokeWidth=2;html=1;shape=mxgraph.flowchart.annotation_2;align=left;labelPosition=right;pointerEvents=1;" vertex="1" parent="OCblu7KXCJCGsIi4Wwkh-34">
          <mxGeometry x="1110" y="760" width="180" height="40" as="geometry" />
        </mxCell>
        <mxCell id="OCblu7KXCJCGsIi4Wwkh-178" value="" style="edgeStyle=orthogonalEdgeStyle;rounded=0;orthogonalLoop=1;jettySize=auto;html=1;" edge="1" parent="OCblu7KXCJCGsIi4Wwkh-34" source="OCblu7KXCJCGsIi4Wwkh-179" target="OCblu7KXCJCGsIi4Wwkh-171">
          <mxGeometry relative="1" as="geometry" />
        </mxCell>
        <mxCell id="OCblu7KXCJCGsIi4Wwkh-179" value="&lt;span style=&quot;font-family: Sarabun;&quot;&gt;c = โค้ก + น้ำเขียว + อเมริกาโน่ + ลาเต้หวานเจี๊ยบ + เมล็ดทานตะวัน + ถั่วแปบ + จิ้นส้มหมก&lt;/span&gt;" style="rounded=0;whiteSpace=wrap;html=1;" vertex="1" parent="OCblu7KXCJCGsIi4Wwkh-34">
          <mxGeometry x="1007.5" y="2050" width="165" height="60" as="geometry" />
        </mxCell>
        <mxCell id="OCblu7KXCJCGsIi4Wwkh-180" value="" style="edgeStyle=orthogonalEdgeStyle;rounded=0;orthogonalLoop=1;jettySize=auto;html=1;" edge="1" parent="OCblu7KXCJCGsIi4Wwkh-34" source="OCblu7KXCJCGsIi4Wwkh-182" target="OCblu7KXCJCGsIi4Wwkh-188">
          <mxGeometry relative="1" as="geometry" />
        </mxCell>
        <mxCell id="OCblu7KXCJCGsIi4Wwkh-181" value="" style="edgeStyle=orthogonalEdgeStyle;rounded=0;orthogonalLoop=1;jettySize=auto;html=1;" edge="1" parent="OCblu7KXCJCGsIi4Wwkh-34" source="OCblu7KXCJCGsIi4Wwkh-182" target="OCblu7KXCJCGsIi4Wwkh-189">
          <mxGeometry relative="1" as="geometry" />
        </mxCell>
        <mxCell id="OCblu7KXCJCGsIi4Wwkh-182" value="จ่ายเงิน" style="rhombus;whiteSpace=wrap;html=1;" vertex="1" parent="OCblu7KXCJCGsIi4Wwkh-34">
          <mxGeometry x="2480" y="290" width="135" height="80" as="geometry" />
        </mxCell>
        <mxCell id="OCblu7KXCJCGsIi4Wwkh-183" value="" style="edgeStyle=orthogonalEdgeStyle;rounded=0;orthogonalLoop=1;jettySize=auto;html=1;" edge="1" parent="OCblu7KXCJCGsIi4Wwkh-34" source="OCblu7KXCJCGsIi4Wwkh-185" target="OCblu7KXCJCGsIi4Wwkh-186">
          <mxGeometry relative="1" as="geometry" />
        </mxCell>
        <mxCell id="OCblu7KXCJCGsIi4Wwkh-184" style="edgeStyle=orthogonalEdgeStyle;rounded=0;orthogonalLoop=1;jettySize=auto;html=1;exitX=1;exitY=0.5;exitDx=0;exitDy=0;" edge="1" parent="OCblu7KXCJCGsIi4Wwkh-34" source="OCblu7KXCJCGsIi4Wwkh-185" target="OCblu7KXCJCGsIi4Wwkh-182">
          <mxGeometry relative="1" as="geometry" />
        </mxCell>
        <mxCell id="OCblu7KXCJCGsIi4Wwkh-185" value="B&amp;gt;0" style="rhombus;whiteSpace=wrap;html=1;" vertex="1" parent="OCblu7KXCJCGsIi4Wwkh-34">
          <mxGeometry x="2287.5" y="200" width="135" height="80" as="geometry" />
        </mxCell>
        <mxCell id="OCblu7KXCJCGsIi4Wwkh-186" value="กลับหน้าหลัก" style="rounded=0;whiteSpace=wrap;html=1;" vertex="1" parent="OCblu7KXCJCGsIi4Wwkh-34">
          <mxGeometry x="2100" y="210" width="120" height="60" as="geometry" />
        </mxCell>
        <mxCell id="OCblu7KXCJCGsIi4Wwkh-187" value="" style="edgeStyle=orthogonalEdgeStyle;rounded=0;orthogonalLoop=1;jettySize=auto;html=1;" edge="1" parent="OCblu7KXCJCGsIi4Wwkh-34" source="OCblu7KXCJCGsIi4Wwkh-188" target="OCblu7KXCJCGsIi4Wwkh-190">
          <mxGeometry relative="1" as="geometry" />
        </mxCell>
        <mxCell id="OCblu7KXCJCGsIi4Wwkh-188" value="&amp;nbsp;qr code" style="rounded=0;whiteSpace=wrap;html=1;" vertex="1" parent="OCblu7KXCJCGsIi4Wwkh-34">
          <mxGeometry x="2295" y="310" width="120" height="60" as="geometry" />
        </mxCell>
        <mxCell id="OCblu7KXCJCGsIi4Wwkh-189" value="เงินสด" style="rhombus;whiteSpace=wrap;html=1;" vertex="1" parent="OCblu7KXCJCGsIi4Wwkh-34">
          <mxGeometry x="2680" y="300" width="80" height="80" as="geometry" />
        </mxCell>
        <mxCell id="OCblu7KXCJCGsIi4Wwkh-302" style="edgeStyle=orthogonalEdgeStyle;rounded=0;orthogonalLoop=1;jettySize=auto;html=1;exitX=0.5;exitY=1;exitDx=0;exitDy=0;entryX=0.5;entryY=0;entryDx=0;entryDy=0;" edge="1" parent="OCblu7KXCJCGsIi4Wwkh-34" source="OCblu7KXCJCGsIi4Wwkh-190" target="OCblu7KXCJCGsIi4Wwkh-297">
          <mxGeometry relative="1" as="geometry" />
        </mxCell>
        <mxCell id="OCblu7KXCJCGsIi4Wwkh-190" value="เเสดง qr code" style="shape=parallelogram;perimeter=parallelogramPerimeter;whiteSpace=wrap;html=1;fixedSize=1;" vertex="1" parent="OCblu7KXCJCGsIi4Wwkh-34">
          <mxGeometry x="2287.5" y="420" width="120" height="60" as="geometry" />
        </mxCell>
        <mxCell id="OCblu7KXCJCGsIi4Wwkh-191" value="ครบ" style="rounded=0;whiteSpace=wrap;html=1;" vertex="1" parent="OCblu7KXCJCGsIi4Wwkh-34">
          <mxGeometry x="2570" y="420" width="120" height="60" as="geometry" />
        </mxCell>
        <mxCell id="OCblu7KXCJCGsIi4Wwkh-192" style="edgeStyle=orthogonalEdgeStyle;rounded=0;orthogonalLoop=1;jettySize=auto;html=1;exitX=0.5;exitY=1;exitDx=0;exitDy=0;entryX=0.5;entryY=0;entryDx=0;entryDy=0;" edge="1" parent="OCblu7KXCJCGsIi4Wwkh-34" source="OCblu7KXCJCGsIi4Wwkh-193" target="OCblu7KXCJCGsIi4Wwkh-198">
          <mxGeometry relative="1" as="geometry" />
        </mxCell>
        <mxCell id="OCblu7KXCJCGsIi4Wwkh-193" value="จำนวนเงิน - a = เงินทอน" style="rounded=0;whiteSpace=wrap;html=1;" vertex="1" parent="OCblu7KXCJCGsIi4Wwkh-34">
          <mxGeometry x="2790" y="420" width="180" height="60" as="geometry" />
        </mxCell>
        <mxCell id="OCblu7KXCJCGsIi4Wwkh-194" style="edgeStyle=orthogonalEdgeStyle;rounded=0;orthogonalLoop=1;jettySize=auto;html=1;exitX=0.5;exitY=1;exitDx=0;exitDy=0;entryX=0.358;entryY=0.043;entryDx=0;entryDy=0;entryPerimeter=0;" edge="1" parent="OCblu7KXCJCGsIi4Wwkh-34" source="OCblu7KXCJCGsIi4Wwkh-189" target="OCblu7KXCJCGsIi4Wwkh-191">
          <mxGeometry relative="1" as="geometry" />
        </mxCell>
        <mxCell id="OCblu7KXCJCGsIi4Wwkh-195" style="edgeStyle=orthogonalEdgeStyle;rounded=0;orthogonalLoop=1;jettySize=auto;html=1;exitX=1;exitY=0.5;exitDx=0;exitDy=0;entryX=0.453;entryY=0.059;entryDx=0;entryDy=0;entryPerimeter=0;" edge="1" parent="OCblu7KXCJCGsIi4Wwkh-34" source="OCblu7KXCJCGsIi4Wwkh-189" target="OCblu7KXCJCGsIi4Wwkh-193">
          <mxGeometry relative="1" as="geometry" />
        </mxCell>
        <mxCell id="OCblu7KXCJCGsIi4Wwkh-196" value="" style="edgeStyle=orthogonalEdgeStyle;rounded=0;orthogonalLoop=1;jettySize=auto;html=1;" edge="1" parent="OCblu7KXCJCGsIi4Wwkh-34" source="OCblu7KXCJCGsIi4Wwkh-198" target="OCblu7KXCJCGsIi4Wwkh-201">
          <mxGeometry relative="1" as="geometry" />
        </mxCell>
        <mxCell id="OCblu7KXCJCGsIi4Wwkh-197" style="edgeStyle=orthogonalEdgeStyle;rounded=0;orthogonalLoop=1;jettySize=auto;html=1;exitX=0.5;exitY=1;exitDx=0;exitDy=0;entryX=0;entryY=0.5;entryDx=0;entryDy=0;" edge="1" parent="OCblu7KXCJCGsIi4Wwkh-34" source="OCblu7KXCJCGsIi4Wwkh-198" target="OCblu7KXCJCGsIi4Wwkh-264">
          <mxGeometry relative="1" as="geometry" />
        </mxCell>
        <mxCell id="OCblu7KXCJCGsIi4Wwkh-198" value="&amp;gt;=500" style="rhombus;whiteSpace=wrap;html=1;" vertex="1" parent="OCblu7KXCJCGsIi4Wwkh-34">
          <mxGeometry x="2850" y="520" width="80" height="80" as="geometry" />
        </mxCell>
        <mxCell id="OCblu7KXCJCGsIi4Wwkh-199" value="" style="edgeStyle=orthogonalEdgeStyle;rounded=0;orthogonalLoop=1;jettySize=auto;html=1;" edge="1" parent="OCblu7KXCJCGsIi4Wwkh-34" source="OCblu7KXCJCGsIi4Wwkh-201" target="OCblu7KXCJCGsIi4Wwkh-203">
          <mxGeometry relative="1" as="geometry" />
        </mxCell>
        <mxCell id="OCblu7KXCJCGsIi4Wwkh-200" style="edgeStyle=orthogonalEdgeStyle;rounded=0;orthogonalLoop=1;jettySize=auto;html=1;exitX=0.5;exitY=1;exitDx=0;exitDy=0;" edge="1" parent="OCblu7KXCJCGsIi4Wwkh-34" source="OCblu7KXCJCGsIi4Wwkh-201" target="OCblu7KXCJCGsIi4Wwkh-264">
          <mxGeometry relative="1" as="geometry">
            <Array as="points">
              <mxPoint x="2950" y="600" />
            </Array>
          </mxGeometry>
        </mxCell>
        <mxCell id="OCblu7KXCJCGsIi4Wwkh-201" value="500&amp;gt;=1" style="rhombus;whiteSpace=wrap;html=1;" vertex="1" parent="OCblu7KXCJCGsIi4Wwkh-34">
          <mxGeometry x="2980" y="520" width="80" height="80" as="geometry" />
        </mxCell>
        <mxCell id="OCblu7KXCJCGsIi4Wwkh-202" value="" style="edgeStyle=orthogonalEdgeStyle;rounded=0;orthogonalLoop=1;jettySize=auto;html=1;" edge="1" parent="OCblu7KXCJCGsIi4Wwkh-34" source="OCblu7KXCJCGsIi4Wwkh-203" target="OCblu7KXCJCGsIi4Wwkh-205">
          <mxGeometry relative="1" as="geometry" />
        </mxCell>
        <mxCell id="OCblu7KXCJCGsIi4Wwkh-203" value="ทอนเเบงค์500" style="rounded=0;whiteSpace=wrap;html=1;" vertex="1" parent="OCblu7KXCJCGsIi4Wwkh-34">
          <mxGeometry x="3100" y="530" width="120" height="60" as="geometry" />
        </mxCell>
        <mxCell id="OCblu7KXCJCGsIi4Wwkh-204" style="edgeStyle=orthogonalEdgeStyle;rounded=0;orthogonalLoop=1;jettySize=auto;html=1;exitX=1;exitY=0.5;exitDx=0;exitDy=0;entryX=1;entryY=0.5;entryDx=0;entryDy=0;" edge="1" parent="OCblu7KXCJCGsIi4Wwkh-34" source="OCblu7KXCJCGsIi4Wwkh-205" target="OCblu7KXCJCGsIi4Wwkh-264">
          <mxGeometry relative="1" as="geometry" />
        </mxCell>
        <mxCell id="OCblu7KXCJCGsIi4Wwkh-205" value="เงินทอน-500 = คงเหลือ" style="rounded=0;whiteSpace=wrap;html=1;" vertex="1" parent="OCblu7KXCJCGsIi4Wwkh-34">
          <mxGeometry x="3270" y="530" width="120" height="60" as="geometry" />
        </mxCell>
        <mxCell id="OCblu7KXCJCGsIi4Wwkh-206" value="" style="edgeStyle=orthogonalEdgeStyle;rounded=0;orthogonalLoop=1;jettySize=auto;html=1;" edge="1" parent="OCblu7KXCJCGsIi4Wwkh-34" source="OCblu7KXCJCGsIi4Wwkh-208" target="OCblu7KXCJCGsIi4Wwkh-211">
          <mxGeometry relative="1" as="geometry" />
        </mxCell>
        <mxCell id="OCblu7KXCJCGsIi4Wwkh-207" style="edgeStyle=orthogonalEdgeStyle;rounded=0;orthogonalLoop=1;jettySize=auto;html=1;exitX=0.5;exitY=1;exitDx=0;exitDy=0;entryX=0;entryY=0.5;entryDx=0;entryDy=0;" edge="1" parent="OCblu7KXCJCGsIi4Wwkh-34" source="OCblu7KXCJCGsIi4Wwkh-208" target="OCblu7KXCJCGsIi4Wwkh-275">
          <mxGeometry relative="1" as="geometry" />
        </mxCell>
        <mxCell id="OCblu7KXCJCGsIi4Wwkh-208" value="&amp;gt;=100" style="rhombus;whiteSpace=wrap;html=1;" vertex="1" parent="OCblu7KXCJCGsIi4Wwkh-34">
          <mxGeometry x="2850" y="670" width="80" height="80" as="geometry" />
        </mxCell>
        <mxCell id="OCblu7KXCJCGsIi4Wwkh-209" value="" style="edgeStyle=orthogonalEdgeStyle;rounded=0;orthogonalLoop=1;jettySize=auto;html=1;" edge="1" parent="OCblu7KXCJCGsIi4Wwkh-34" source="OCblu7KXCJCGsIi4Wwkh-211" target="OCblu7KXCJCGsIi4Wwkh-213">
          <mxGeometry relative="1" as="geometry" />
        </mxCell>
        <mxCell id="OCblu7KXCJCGsIi4Wwkh-210" style="edgeStyle=orthogonalEdgeStyle;rounded=0;orthogonalLoop=1;jettySize=auto;html=1;exitX=0.5;exitY=1;exitDx=0;exitDy=0;entryX=1;entryY=0;entryDx=0;entryDy=0;" edge="1" parent="OCblu7KXCJCGsIi4Wwkh-34" source="OCblu7KXCJCGsIi4Wwkh-211" target="OCblu7KXCJCGsIi4Wwkh-275">
          <mxGeometry relative="1" as="geometry" />
        </mxCell>
        <mxCell id="OCblu7KXCJCGsIi4Wwkh-211" value="100&amp;gt;=1" style="rhombus;whiteSpace=wrap;html=1;" vertex="1" parent="OCblu7KXCJCGsIi4Wwkh-34">
          <mxGeometry x="2980" y="670" width="80" height="80" as="geometry" />
        </mxCell>
        <mxCell id="OCblu7KXCJCGsIi4Wwkh-212" value="" style="edgeStyle=orthogonalEdgeStyle;rounded=0;orthogonalLoop=1;jettySize=auto;html=1;" edge="1" parent="OCblu7KXCJCGsIi4Wwkh-34" source="OCblu7KXCJCGsIi4Wwkh-213" target="OCblu7KXCJCGsIi4Wwkh-215">
          <mxGeometry relative="1" as="geometry" />
        </mxCell>
        <mxCell id="OCblu7KXCJCGsIi4Wwkh-213" value="ทอนเเบงค์100" style="rounded=0;whiteSpace=wrap;html=1;" vertex="1" parent="OCblu7KXCJCGsIi4Wwkh-34">
          <mxGeometry x="3100" y="680" width="120" height="60" as="geometry" />
        </mxCell>
        <mxCell id="OCblu7KXCJCGsIi4Wwkh-214" style="edgeStyle=orthogonalEdgeStyle;rounded=0;orthogonalLoop=1;jettySize=auto;html=1;exitX=1;exitY=0.5;exitDx=0;exitDy=0;entryX=1;entryY=0.5;entryDx=0;entryDy=0;" edge="1" parent="OCblu7KXCJCGsIi4Wwkh-34" source="OCblu7KXCJCGsIi4Wwkh-215" target="OCblu7KXCJCGsIi4Wwkh-275">
          <mxGeometry relative="1" as="geometry" />
        </mxCell>
        <mxCell id="OCblu7KXCJCGsIi4Wwkh-215" value="เงินทอน-100 = คงเหลือ" style="rounded=0;whiteSpace=wrap;html=1;" vertex="1" parent="OCblu7KXCJCGsIi4Wwkh-34">
          <mxGeometry x="3270" y="680" width="120" height="60" as="geometry" />
        </mxCell>
        <mxCell id="OCblu7KXCJCGsIi4Wwkh-216" value="" style="edgeStyle=orthogonalEdgeStyle;rounded=0;orthogonalLoop=1;jettySize=auto;html=1;" edge="1" parent="OCblu7KXCJCGsIi4Wwkh-34" source="OCblu7KXCJCGsIi4Wwkh-218" target="OCblu7KXCJCGsIi4Wwkh-221">
          <mxGeometry relative="1" as="geometry" />
        </mxCell>
        <mxCell id="OCblu7KXCJCGsIi4Wwkh-217" style="edgeStyle=orthogonalEdgeStyle;rounded=0;orthogonalLoop=1;jettySize=auto;html=1;exitX=0.5;exitY=1;exitDx=0;exitDy=0;entryX=0;entryY=0;entryDx=0;entryDy=0;" edge="1" parent="OCblu7KXCJCGsIi4Wwkh-34" source="OCblu7KXCJCGsIi4Wwkh-218" target="OCblu7KXCJCGsIi4Wwkh-266">
          <mxGeometry relative="1" as="geometry" />
        </mxCell>
        <mxCell id="OCblu7KXCJCGsIi4Wwkh-218" value="&amp;gt;=50" style="rhombus;whiteSpace=wrap;html=1;" vertex="1" parent="OCblu7KXCJCGsIi4Wwkh-34">
          <mxGeometry x="2850" y="810" width="80" height="80" as="geometry" />
        </mxCell>
        <mxCell id="OCblu7KXCJCGsIi4Wwkh-219" value="" style="edgeStyle=orthogonalEdgeStyle;rounded=0;orthogonalLoop=1;jettySize=auto;html=1;" edge="1" parent="OCblu7KXCJCGsIi4Wwkh-34" source="OCblu7KXCJCGsIi4Wwkh-221" target="OCblu7KXCJCGsIi4Wwkh-223">
          <mxGeometry relative="1" as="geometry" />
        </mxCell>
        <mxCell id="OCblu7KXCJCGsIi4Wwkh-220" style="edgeStyle=orthogonalEdgeStyle;rounded=0;orthogonalLoop=1;jettySize=auto;html=1;exitX=0.5;exitY=1;exitDx=0;exitDy=0;entryX=0.5;entryY=0;entryDx=0;entryDy=0;" edge="1" parent="OCblu7KXCJCGsIi4Wwkh-34" source="OCblu7KXCJCGsIi4Wwkh-221" target="OCblu7KXCJCGsIi4Wwkh-266">
          <mxGeometry relative="1" as="geometry" />
        </mxCell>
        <mxCell id="OCblu7KXCJCGsIi4Wwkh-221" value="50&amp;gt;=1" style="rhombus;whiteSpace=wrap;html=1;" vertex="1" parent="OCblu7KXCJCGsIi4Wwkh-34">
          <mxGeometry x="2980" y="810" width="80" height="80" as="geometry" />
        </mxCell>
        <mxCell id="OCblu7KXCJCGsIi4Wwkh-222" value="" style="edgeStyle=orthogonalEdgeStyle;rounded=0;orthogonalLoop=1;jettySize=auto;html=1;" edge="1" parent="OCblu7KXCJCGsIi4Wwkh-34" source="OCblu7KXCJCGsIi4Wwkh-223" target="OCblu7KXCJCGsIi4Wwkh-225">
          <mxGeometry relative="1" as="geometry" />
        </mxCell>
        <mxCell id="OCblu7KXCJCGsIi4Wwkh-223" value="ทอนเเบงค์50" style="rounded=0;whiteSpace=wrap;html=1;" vertex="1" parent="OCblu7KXCJCGsIi4Wwkh-34">
          <mxGeometry x="3100" y="820" width="120" height="60" as="geometry" />
        </mxCell>
        <mxCell id="OCblu7KXCJCGsIi4Wwkh-224" style="edgeStyle=orthogonalEdgeStyle;rounded=0;orthogonalLoop=1;jettySize=auto;html=1;exitX=1;exitY=0.5;exitDx=0;exitDy=0;entryX=1;entryY=0.5;entryDx=0;entryDy=0;" edge="1" parent="OCblu7KXCJCGsIi4Wwkh-34" source="OCblu7KXCJCGsIi4Wwkh-225" target="OCblu7KXCJCGsIi4Wwkh-266">
          <mxGeometry relative="1" as="geometry" />
        </mxCell>
        <mxCell id="OCblu7KXCJCGsIi4Wwkh-225" value="เงินทอน-50= คงเหลือ" style="rounded=0;whiteSpace=wrap;html=1;" vertex="1" parent="OCblu7KXCJCGsIi4Wwkh-34">
          <mxGeometry x="3270" y="820" width="120" height="60" as="geometry" />
        </mxCell>
        <mxCell id="OCblu7KXCJCGsIi4Wwkh-226" style="edgeStyle=orthogonalEdgeStyle;rounded=0;orthogonalLoop=1;jettySize=auto;html=1;exitX=1;exitY=0.5;exitDx=0;exitDy=0;entryX=0;entryY=0.5;entryDx=0;entryDy=0;" edge="1" parent="OCblu7KXCJCGsIi4Wwkh-34" source="OCblu7KXCJCGsIi4Wwkh-228" target="OCblu7KXCJCGsIi4Wwkh-231">
          <mxGeometry relative="1" as="geometry" />
        </mxCell>
        <mxCell id="OCblu7KXCJCGsIi4Wwkh-227" style="edgeStyle=orthogonalEdgeStyle;rounded=0;orthogonalLoop=1;jettySize=auto;html=1;exitX=0.5;exitY=1;exitDx=0;exitDy=0;entryX=0;entryY=0;entryDx=0;entryDy=0;" edge="1" parent="OCblu7KXCJCGsIi4Wwkh-34" source="OCblu7KXCJCGsIi4Wwkh-228" target="OCblu7KXCJCGsIi4Wwkh-268">
          <mxGeometry relative="1" as="geometry" />
        </mxCell>
        <mxCell id="OCblu7KXCJCGsIi4Wwkh-228" value="&amp;gt;=20" style="rhombus;whiteSpace=wrap;html=1;" vertex="1" parent="OCblu7KXCJCGsIi4Wwkh-34">
          <mxGeometry x="2850" y="950" width="80" height="80" as="geometry" />
        </mxCell>
        <mxCell id="OCblu7KXCJCGsIi4Wwkh-229" value="" style="edgeStyle=orthogonalEdgeStyle;rounded=0;orthogonalLoop=1;jettySize=auto;html=1;" edge="1" parent="OCblu7KXCJCGsIi4Wwkh-34" source="OCblu7KXCJCGsIi4Wwkh-231" target="OCblu7KXCJCGsIi4Wwkh-233">
          <mxGeometry relative="1" as="geometry" />
        </mxCell>
        <mxCell id="OCblu7KXCJCGsIi4Wwkh-230" style="edgeStyle=orthogonalEdgeStyle;rounded=0;orthogonalLoop=1;jettySize=auto;html=1;exitX=0.5;exitY=1;exitDx=0;exitDy=0;entryX=1;entryY=0;entryDx=0;entryDy=0;" edge="1" parent="OCblu7KXCJCGsIi4Wwkh-34" source="OCblu7KXCJCGsIi4Wwkh-231" target="OCblu7KXCJCGsIi4Wwkh-268">
          <mxGeometry relative="1" as="geometry" />
        </mxCell>
        <mxCell id="OCblu7KXCJCGsIi4Wwkh-231" value="20&amp;gt;=1" style="rhombus;whiteSpace=wrap;html=1;" vertex="1" parent="OCblu7KXCJCGsIi4Wwkh-34">
          <mxGeometry x="2980" y="950" width="80" height="80" as="geometry" />
        </mxCell>
        <mxCell id="OCblu7KXCJCGsIi4Wwkh-232" value="" style="edgeStyle=orthogonalEdgeStyle;rounded=0;orthogonalLoop=1;jettySize=auto;html=1;" edge="1" parent="OCblu7KXCJCGsIi4Wwkh-34" source="OCblu7KXCJCGsIi4Wwkh-233" target="OCblu7KXCJCGsIi4Wwkh-235">
          <mxGeometry relative="1" as="geometry" />
        </mxCell>
        <mxCell id="OCblu7KXCJCGsIi4Wwkh-233" value="ทอนเเบงค์20" style="rounded=0;whiteSpace=wrap;html=1;" vertex="1" parent="OCblu7KXCJCGsIi4Wwkh-34">
          <mxGeometry x="3100" y="960" width="120" height="60" as="geometry" />
        </mxCell>
        <mxCell id="OCblu7KXCJCGsIi4Wwkh-234" style="edgeStyle=orthogonalEdgeStyle;rounded=0;orthogonalLoop=1;jettySize=auto;html=1;exitX=1;exitY=0.5;exitDx=0;exitDy=0;entryX=1;entryY=0.5;entryDx=0;entryDy=0;" edge="1" parent="OCblu7KXCJCGsIi4Wwkh-34" source="OCblu7KXCJCGsIi4Wwkh-235" target="OCblu7KXCJCGsIi4Wwkh-268">
          <mxGeometry relative="1" as="geometry" />
        </mxCell>
        <mxCell id="OCblu7KXCJCGsIi4Wwkh-235" value="เงินทอน-20= คงเหลือ" style="rounded=0;whiteSpace=wrap;html=1;" vertex="1" parent="OCblu7KXCJCGsIi4Wwkh-34">
          <mxGeometry x="3270" y="960" width="120" height="60" as="geometry" />
        </mxCell>
        <mxCell id="OCblu7KXCJCGsIi4Wwkh-236" value="" style="edgeStyle=orthogonalEdgeStyle;rounded=0;orthogonalLoop=1;jettySize=auto;html=1;" edge="1" parent="OCblu7KXCJCGsIi4Wwkh-34" source="OCblu7KXCJCGsIi4Wwkh-238" target="OCblu7KXCJCGsIi4Wwkh-241">
          <mxGeometry relative="1" as="geometry" />
        </mxCell>
        <mxCell id="OCblu7KXCJCGsIi4Wwkh-237" style="edgeStyle=orthogonalEdgeStyle;rounded=0;orthogonalLoop=1;jettySize=auto;html=1;exitX=0.5;exitY=1;exitDx=0;exitDy=0;entryX=0.5;entryY=0;entryDx=0;entryDy=0;" edge="1" parent="OCblu7KXCJCGsIi4Wwkh-34" source="OCblu7KXCJCGsIi4Wwkh-238" target="OCblu7KXCJCGsIi4Wwkh-269">
          <mxGeometry relative="1" as="geometry" />
        </mxCell>
        <mxCell id="OCblu7KXCJCGsIi4Wwkh-238" value="&amp;gt;=19" style="rhombus;whiteSpace=wrap;html=1;" vertex="1" parent="OCblu7KXCJCGsIi4Wwkh-34">
          <mxGeometry x="2850" y="1090" width="80" height="80" as="geometry" />
        </mxCell>
        <mxCell id="OCblu7KXCJCGsIi4Wwkh-239" value="" style="edgeStyle=orthogonalEdgeStyle;rounded=0;orthogonalLoop=1;jettySize=auto;html=1;" edge="1" parent="OCblu7KXCJCGsIi4Wwkh-34" source="OCblu7KXCJCGsIi4Wwkh-241" target="OCblu7KXCJCGsIi4Wwkh-243">
          <mxGeometry relative="1" as="geometry" />
        </mxCell>
        <mxCell id="OCblu7KXCJCGsIi4Wwkh-240" style="edgeStyle=orthogonalEdgeStyle;rounded=0;orthogonalLoop=1;jettySize=auto;html=1;exitX=0.5;exitY=1;exitDx=0;exitDy=0;entryX=1;entryY=0;entryDx=0;entryDy=0;" edge="1" parent="OCblu7KXCJCGsIi4Wwkh-34" source="OCblu7KXCJCGsIi4Wwkh-241" target="OCblu7KXCJCGsIi4Wwkh-269">
          <mxGeometry relative="1" as="geometry" />
        </mxCell>
        <mxCell id="OCblu7KXCJCGsIi4Wwkh-241" value="10&amp;gt;=1" style="rhombus;whiteSpace=wrap;html=1;" vertex="1" parent="OCblu7KXCJCGsIi4Wwkh-34">
          <mxGeometry x="2980" y="1090" width="80" height="80" as="geometry" />
        </mxCell>
        <mxCell id="OCblu7KXCJCGsIi4Wwkh-242" value="" style="edgeStyle=orthogonalEdgeStyle;rounded=0;orthogonalLoop=1;jettySize=auto;html=1;" edge="1" parent="OCblu7KXCJCGsIi4Wwkh-34" source="OCblu7KXCJCGsIi4Wwkh-243" target="OCblu7KXCJCGsIi4Wwkh-245">
          <mxGeometry relative="1" as="geometry" />
        </mxCell>
        <mxCell id="OCblu7KXCJCGsIi4Wwkh-243" value="ทอนเหรียญ10" style="rounded=0;whiteSpace=wrap;html=1;" vertex="1" parent="OCblu7KXCJCGsIi4Wwkh-34">
          <mxGeometry x="3100" y="1100" width="120" height="60" as="geometry" />
        </mxCell>
        <mxCell id="OCblu7KXCJCGsIi4Wwkh-244" style="edgeStyle=orthogonalEdgeStyle;rounded=0;orthogonalLoop=1;jettySize=auto;html=1;exitX=1;exitY=0.5;exitDx=0;exitDy=0;entryX=1;entryY=0.5;entryDx=0;entryDy=0;" edge="1" parent="OCblu7KXCJCGsIi4Wwkh-34" source="OCblu7KXCJCGsIi4Wwkh-245" target="OCblu7KXCJCGsIi4Wwkh-269">
          <mxGeometry relative="1" as="geometry" />
        </mxCell>
        <mxCell id="OCblu7KXCJCGsIi4Wwkh-245" value="เงินทอน-10= คงเหลือ" style="rounded=0;whiteSpace=wrap;html=1;" vertex="1" parent="OCblu7KXCJCGsIi4Wwkh-34">
          <mxGeometry x="3270" y="1100" width="120" height="60" as="geometry" />
        </mxCell>
        <mxCell id="OCblu7KXCJCGsIi4Wwkh-246" value="" style="edgeStyle=orthogonalEdgeStyle;rounded=0;orthogonalLoop=1;jettySize=auto;html=1;" edge="1" parent="OCblu7KXCJCGsIi4Wwkh-34" source="OCblu7KXCJCGsIi4Wwkh-248" target="OCblu7KXCJCGsIi4Wwkh-269">
          <mxGeometry relative="1" as="geometry" />
        </mxCell>
        <mxCell id="OCblu7KXCJCGsIi4Wwkh-247" style="edgeStyle=orthogonalEdgeStyle;rounded=0;orthogonalLoop=1;jettySize=auto;html=1;exitX=0.5;exitY=1;exitDx=0;exitDy=0;" edge="1" parent="OCblu7KXCJCGsIi4Wwkh-34" source="OCblu7KXCJCGsIi4Wwkh-248" target="OCblu7KXCJCGsIi4Wwkh-271">
          <mxGeometry relative="1" as="geometry" />
        </mxCell>
        <mxCell id="OCblu7KXCJCGsIi4Wwkh-248" value="&amp;gt;=9" style="rhombus;whiteSpace=wrap;html=1;" vertex="1" parent="OCblu7KXCJCGsIi4Wwkh-34">
          <mxGeometry x="2850" y="1210" width="80" height="80" as="geometry" />
        </mxCell>
        <mxCell id="OCblu7KXCJCGsIi4Wwkh-249" value="" style="edgeStyle=orthogonalEdgeStyle;rounded=0;orthogonalLoop=1;jettySize=auto;html=1;" edge="1" parent="OCblu7KXCJCGsIi4Wwkh-34" source="OCblu7KXCJCGsIi4Wwkh-251" target="OCblu7KXCJCGsIi4Wwkh-253">
          <mxGeometry relative="1" as="geometry" />
        </mxCell>
        <mxCell id="OCblu7KXCJCGsIi4Wwkh-250" style="edgeStyle=orthogonalEdgeStyle;rounded=0;orthogonalLoop=1;jettySize=auto;html=1;exitX=0.5;exitY=1;exitDx=0;exitDy=0;" edge="1" parent="OCblu7KXCJCGsIi4Wwkh-34" source="OCblu7KXCJCGsIi4Wwkh-251">
          <mxGeometry relative="1" as="geometry">
            <mxPoint x="2970" y="1310" as="targetPoint" />
          </mxGeometry>
        </mxCell>
        <mxCell id="OCblu7KXCJCGsIi4Wwkh-251" value="5&amp;gt;=1" style="rhombus;whiteSpace=wrap;html=1;" vertex="1" parent="OCblu7KXCJCGsIi4Wwkh-34">
          <mxGeometry x="2980" y="1210" width="80" height="80" as="geometry" />
        </mxCell>
        <mxCell id="OCblu7KXCJCGsIi4Wwkh-252" value="" style="edgeStyle=orthogonalEdgeStyle;rounded=0;orthogonalLoop=1;jettySize=auto;html=1;" edge="1" parent="OCblu7KXCJCGsIi4Wwkh-34" source="OCblu7KXCJCGsIi4Wwkh-253" target="OCblu7KXCJCGsIi4Wwkh-254">
          <mxGeometry relative="1" as="geometry" />
        </mxCell>
        <mxCell id="OCblu7KXCJCGsIi4Wwkh-253" value="ทอนเหรียญ5" style="rounded=0;whiteSpace=wrap;html=1;" vertex="1" parent="OCblu7KXCJCGsIi4Wwkh-34">
          <mxGeometry x="3100" y="1220" width="120" height="60" as="geometry" />
        </mxCell>
        <mxCell id="OCblu7KXCJCGsIi4Wwkh-254" value="เงินทอน-5= คงเหลือ" style="rounded=0;whiteSpace=wrap;html=1;" vertex="1" parent="OCblu7KXCJCGsIi4Wwkh-34">
          <mxGeometry x="3270" y="1220" width="120" height="60" as="geometry" />
        </mxCell>
        <mxCell id="OCblu7KXCJCGsIi4Wwkh-255" style="edgeStyle=orthogonalEdgeStyle;rounded=0;orthogonalLoop=1;jettySize=auto;html=1;exitX=1;exitY=0.5;exitDx=0;exitDy=0;entryX=0;entryY=0.5;entryDx=0;entryDy=0;" edge="1" parent="OCblu7KXCJCGsIi4Wwkh-34" target="OCblu7KXCJCGsIi4Wwkh-258">
          <mxGeometry relative="1" as="geometry">
            <mxPoint x="2930" y="1370" as="sourcePoint" />
          </mxGeometry>
        </mxCell>
        <mxCell id="OCblu7KXCJCGsIi4Wwkh-256" style="edgeStyle=orthogonalEdgeStyle;rounded=0;orthogonalLoop=1;jettySize=auto;html=1;exitX=1;exitY=0.5;exitDx=0;exitDy=0;entryX=0;entryY=0.5;entryDx=0;entryDy=0;" edge="1" parent="OCblu7KXCJCGsIi4Wwkh-34" source="OCblu7KXCJCGsIi4Wwkh-258" target="OCblu7KXCJCGsIi4Wwkh-260">
          <mxGeometry relative="1" as="geometry" />
        </mxCell>
        <mxCell id="OCblu7KXCJCGsIi4Wwkh-257" style="edgeStyle=orthogonalEdgeStyle;rounded=0;orthogonalLoop=1;jettySize=auto;html=1;exitX=0.5;exitY=1;exitDx=0;exitDy=0;entryX=1;entryY=0;entryDx=0;entryDy=0;" edge="1" parent="OCblu7KXCJCGsIi4Wwkh-34" source="OCblu7KXCJCGsIi4Wwkh-258" target="OCblu7KXCJCGsIi4Wwkh-273">
          <mxGeometry relative="1" as="geometry" />
        </mxCell>
        <mxCell id="OCblu7KXCJCGsIi4Wwkh-258" value="1&amp;gt;=1" style="rhombus;whiteSpace=wrap;html=1;" vertex="1" parent="OCblu7KXCJCGsIi4Wwkh-34">
          <mxGeometry x="2980" y="1330" width="80" height="80" as="geometry" />
        </mxCell>
        <mxCell id="OCblu7KXCJCGsIi4Wwkh-259" style="edgeStyle=orthogonalEdgeStyle;rounded=0;orthogonalLoop=1;jettySize=auto;html=1;exitX=1;exitY=0.5;exitDx=0;exitDy=0;entryX=0;entryY=0.5;entryDx=0;entryDy=0;" edge="1" parent="OCblu7KXCJCGsIi4Wwkh-34" source="OCblu7KXCJCGsIi4Wwkh-260" target="OCblu7KXCJCGsIi4Wwkh-262">
          <mxGeometry relative="1" as="geometry" />
        </mxCell>
        <mxCell id="OCblu7KXCJCGsIi4Wwkh-260" value="ทอนเหรียญ1" style="rounded=0;whiteSpace=wrap;html=1;" vertex="1" parent="OCblu7KXCJCGsIi4Wwkh-34">
          <mxGeometry x="3100" y="1340" width="120" height="60" as="geometry" />
        </mxCell>
        <mxCell id="OCblu7KXCJCGsIi4Wwkh-261" style="edgeStyle=orthogonalEdgeStyle;rounded=0;orthogonalLoop=1;jettySize=auto;html=1;exitX=1;exitY=0.5;exitDx=0;exitDy=0;entryX=1;entryY=0.5;entryDx=0;entryDy=0;" edge="1" parent="OCblu7KXCJCGsIi4Wwkh-34" source="OCblu7KXCJCGsIi4Wwkh-262" target="OCblu7KXCJCGsIi4Wwkh-273">
          <mxGeometry relative="1" as="geometry" />
        </mxCell>
        <mxCell id="OCblu7KXCJCGsIi4Wwkh-262" value="เงินทอน-1= คงเหลือ" style="rounded=0;whiteSpace=wrap;html=1;" vertex="1" parent="OCblu7KXCJCGsIi4Wwkh-34">
          <mxGeometry x="3270" y="1340" width="120" height="60" as="geometry" />
        </mxCell>
        <mxCell id="OCblu7KXCJCGsIi4Wwkh-263" style="edgeStyle=orthogonalEdgeStyle;rounded=0;orthogonalLoop=1;jettySize=auto;html=1;exitX=0.5;exitY=1;exitDx=0;exitDy=0;" edge="1" parent="OCblu7KXCJCGsIi4Wwkh-34" source="OCblu7KXCJCGsIi4Wwkh-264" target="OCblu7KXCJCGsIi4Wwkh-208">
          <mxGeometry relative="1" as="geometry" />
        </mxCell>
        <mxCell id="OCblu7KXCJCGsIi4Wwkh-264" value="" style="ellipse;whiteSpace=wrap;html=1;aspect=fixed;" vertex="1" parent="OCblu7KXCJCGsIi4Wwkh-34">
          <mxGeometry x="2930" y="610" width="40" height="40" as="geometry" />
        </mxCell>
        <mxCell id="OCblu7KXCJCGsIi4Wwkh-265" style="edgeStyle=orthogonalEdgeStyle;rounded=0;orthogonalLoop=1;jettySize=auto;html=1;exitX=0;exitY=0.5;exitDx=0;exitDy=0;entryX=0.5;entryY=0;entryDx=0;entryDy=0;" edge="1" parent="OCblu7KXCJCGsIi4Wwkh-34" source="OCblu7KXCJCGsIi4Wwkh-266" target="OCblu7KXCJCGsIi4Wwkh-228">
          <mxGeometry relative="1" as="geometry" />
        </mxCell>
        <mxCell id="OCblu7KXCJCGsIi4Wwkh-266" value="" style="ellipse;whiteSpace=wrap;html=1;aspect=fixed;" vertex="1" parent="OCblu7KXCJCGsIi4Wwkh-34">
          <mxGeometry x="2940" y="910" width="40" height="40" as="geometry" />
        </mxCell>
        <mxCell id="OCblu7KXCJCGsIi4Wwkh-267" style="edgeStyle=orthogonalEdgeStyle;rounded=0;orthogonalLoop=1;jettySize=auto;html=1;exitX=0;exitY=0.5;exitDx=0;exitDy=0;entryX=0.5;entryY=0;entryDx=0;entryDy=0;" edge="1" parent="OCblu7KXCJCGsIi4Wwkh-34" source="OCblu7KXCJCGsIi4Wwkh-268" target="OCblu7KXCJCGsIi4Wwkh-238">
          <mxGeometry relative="1" as="geometry" />
        </mxCell>
        <mxCell id="OCblu7KXCJCGsIi4Wwkh-268" value="" style="ellipse;whiteSpace=wrap;html=1;aspect=fixed;" vertex="1" parent="OCblu7KXCJCGsIi4Wwkh-34">
          <mxGeometry x="2940" y="1050" width="40" height="40" as="geometry" />
        </mxCell>
        <mxCell id="OCblu7KXCJCGsIi4Wwkh-269" value="" style="ellipse;whiteSpace=wrap;html=1;aspect=fixed;" vertex="1" parent="OCblu7KXCJCGsIi4Wwkh-34">
          <mxGeometry x="2940" y="1180" width="40" height="40" as="geometry" />
        </mxCell>
        <mxCell id="OCblu7KXCJCGsIi4Wwkh-270" style="edgeStyle=orthogonalEdgeStyle;rounded=0;orthogonalLoop=1;jettySize=auto;html=1;exitX=0;exitY=1;exitDx=0;exitDy=0;entryX=1;entryY=0;entryDx=0;entryDy=0;" edge="1" parent="OCblu7KXCJCGsIi4Wwkh-34" source="OCblu7KXCJCGsIi4Wwkh-271">
          <mxGeometry relative="1" as="geometry">
            <mxPoint x="2910" y="1350" as="targetPoint" />
          </mxGeometry>
        </mxCell>
        <mxCell id="OCblu7KXCJCGsIi4Wwkh-271" value="" style="ellipse;whiteSpace=wrap;html=1;aspect=fixed;" vertex="1" parent="OCblu7KXCJCGsIi4Wwkh-34">
          <mxGeometry x="2940" y="1305" width="40" height="40" as="geometry" />
        </mxCell>
        <mxCell id="OCblu7KXCJCGsIi4Wwkh-295" style="edgeStyle=orthogonalEdgeStyle;rounded=0;orthogonalLoop=1;jettySize=auto;html=1;exitX=0;exitY=0.5;exitDx=0;exitDy=0;entryX=1;entryY=0.5;entryDx=0;entryDy=0;" edge="1" parent="OCblu7KXCJCGsIi4Wwkh-34" source="OCblu7KXCJCGsIi4Wwkh-273" target="OCblu7KXCJCGsIi4Wwkh-278">
          <mxGeometry relative="1" as="geometry" />
        </mxCell>
        <mxCell id="OCblu7KXCJCGsIi4Wwkh-273" value="" style="ellipse;whiteSpace=wrap;html=1;aspect=fixed;" vertex="1" parent="OCblu7KXCJCGsIi4Wwkh-34">
          <mxGeometry x="2940" y="1450" width="40" height="40" as="geometry" />
        </mxCell>
        <mxCell id="OCblu7KXCJCGsIi4Wwkh-274" style="edgeStyle=orthogonalEdgeStyle;rounded=0;orthogonalLoop=1;jettySize=auto;html=1;exitX=0.5;exitY=1;exitDx=0;exitDy=0;entryX=0.5;entryY=0;entryDx=0;entryDy=0;" edge="1" parent="OCblu7KXCJCGsIi4Wwkh-34" source="OCblu7KXCJCGsIi4Wwkh-275" target="OCblu7KXCJCGsIi4Wwkh-218">
          <mxGeometry relative="1" as="geometry">
            <Array as="points">
              <mxPoint x="2910" y="800" />
              <mxPoint x="2910" y="790" />
              <mxPoint x="2890" y="790" />
            </Array>
          </mxGeometry>
        </mxCell>
        <mxCell id="OCblu7KXCJCGsIi4Wwkh-275" value="" style="ellipse;whiteSpace=wrap;html=1;aspect=fixed;" vertex="1" parent="OCblu7KXCJCGsIi4Wwkh-34">
          <mxGeometry x="2930" y="760" width="40" height="40" as="geometry" />
        </mxCell>
        <mxCell id="OCblu7KXCJCGsIi4Wwkh-276" style="edgeStyle=orthogonalEdgeStyle;rounded=0;orthogonalLoop=1;jettySize=auto;html=1;exitX=0;exitY=0.5;exitDx=0;exitDy=0;entryX=0.639;entryY=0.134;entryDx=0;entryDy=0;entryPerimeter=0;" edge="1" parent="OCblu7KXCJCGsIi4Wwkh-34" source="OCblu7KXCJCGsIi4Wwkh-269" target="OCblu7KXCJCGsIi4Wwkh-248">
          <mxGeometry relative="1" as="geometry" />
        </mxCell>
        <mxCell id="OCblu7KXCJCGsIi4Wwkh-277" style="edgeStyle=orthogonalEdgeStyle;rounded=0;orthogonalLoop=1;jettySize=auto;html=1;exitX=1;exitY=0.5;exitDx=0;exitDy=0;entryX=1.054;entryY=0.288;entryDx=0;entryDy=0;entryPerimeter=0;" edge="1" parent="OCblu7KXCJCGsIi4Wwkh-34" source="OCblu7KXCJCGsIi4Wwkh-254" target="OCblu7KXCJCGsIi4Wwkh-271">
          <mxGeometry relative="1" as="geometry">
            <Array as="points">
              <mxPoint x="3410" y="1250" />
              <mxPoint x="3410" y="1310" />
              <mxPoint x="2982" y="1310" />
            </Array>
          </mxGeometry>
        </mxCell>
        <mxCell id="OCblu7KXCJCGsIi4Wwkh-278" value="" style="ellipse;whiteSpace=wrap;html=1;aspect=fixed;" vertex="1" parent="OCblu7KXCJCGsIi4Wwkh-34">
          <mxGeometry x="2580" y="1425" width="80" height="80" as="geometry" />
        </mxCell>
        <mxCell id="OCblu7KXCJCGsIi4Wwkh-279" style="edgeStyle=orthogonalEdgeStyle;rounded=0;orthogonalLoop=1;jettySize=auto;html=1;exitX=0.5;exitY=1;exitDx=0;exitDy=0;entryX=0.662;entryY=0.062;entryDx=0;entryDy=0;entryPerimeter=0;" edge="1" parent="OCblu7KXCJCGsIi4Wwkh-34" source="OCblu7KXCJCGsIi4Wwkh-191" target="OCblu7KXCJCGsIi4Wwkh-278">
          <mxGeometry relative="1" as="geometry" />
        </mxCell>
        <mxCell id="OCblu7KXCJCGsIi4Wwkh-280" value="ลาเต่หวานเจี๊ยบ" style="rounded=0;whiteSpace=wrap;html=1;" vertex="1" parent="OCblu7KXCJCGsIi4Wwkh-34">
          <mxGeometry x="195" y="1720" width="120" height="60" as="geometry" />
        </mxCell>
        <mxCell id="OCblu7KXCJCGsIi4Wwkh-281" value="จิ้นส้มหมก" style="rounded=0;whiteSpace=wrap;html=1;" vertex="1" parent="OCblu7KXCJCGsIi4Wwkh-34">
          <mxGeometry x="1060" y="1580" width="120" height="60" as="geometry" />
        </mxCell>
        <mxCell id="OCblu7KXCJCGsIi4Wwkh-282" value="&amp;gt;=4" style="rounded=0;whiteSpace=wrap;html=1;" vertex="1" parent="OCblu7KXCJCGsIi4Wwkh-34">
          <mxGeometry x="2810" y="1350" width="120" height="60" as="geometry" />
        </mxCell>
        <mxCell id="OCblu7KXCJCGsIi4Wwkh-283" value="&lt;span style=&quot;font-family: Sarabun;&quot;&gt;ยอดขาย = a&lt;/span&gt;&lt;div style=&quot;font-family: Sarabun;&quot;&gt;จำนวนสินค้าที่ขายได้ =&amp;nbsp;&lt;span style=&quot;white-space: pre;&quot;&gt;&#x9;&lt;/span&gt;โค้ก, น้ำเขียว, อเมริกาโน่ , ลาเต้หวานเจี๊ยบ, เมล็ดทานตะวัน, ถั่วแปบ, จิ้นส้มหมก&lt;/div&gt;&lt;div style=&quot;font-family: Sarabun;&quot;&gt;เงินในตู้ แบงค์ที่เหลือ&lt;/div&gt;&lt;div style=&quot;font-family: Sarabun;&quot;&gt;เหรียญที่เหลือ&lt;/div&gt;&lt;div style=&quot;font-family: Sarabun;&quot;&gt;ยอดเงิน&lt;/div&gt;" style="shape=parallelogram;perimeter=parallelogramPerimeter;whiteSpace=wrap;html=1;fixedSize=1;" vertex="1" parent="OCblu7KXCJCGsIi4Wwkh-34">
          <mxGeometry x="2287.5" y="1940" width="342.5" height="130" as="geometry" />
        </mxCell>
        <mxCell id="OCblu7KXCJCGsIi4Wwkh-298" style="edgeStyle=orthogonalEdgeStyle;rounded=0;orthogonalLoop=1;jettySize=auto;html=1;exitX=0.5;exitY=1;exitDx=0;exitDy=0;entryX=0.5;entryY=0;entryDx=0;entryDy=0;" edge="1" parent="OCblu7KXCJCGsIi4Wwkh-34" source="OCblu7KXCJCGsIi4Wwkh-284" target="OCblu7KXCJCGsIi4Wwkh-289">
          <mxGeometry relative="1" as="geometry" />
        </mxCell>
        <mxCell id="OCblu7KXCJCGsIi4Wwkh-284" value="จำนวนเงินในตู้ - จำนวนเงินที่ทอน" style="rounded=0;whiteSpace=wrap;html=1;" vertex="1" parent="OCblu7KXCJCGsIi4Wwkh-34">
          <mxGeometry x="2490" y="1555" width="200" height="60" as="geometry" />
        </mxCell>
        <mxCell id="OCblu7KXCJCGsIi4Wwkh-285" value="int c = 0" style="rounded=0;whiteSpace=wrap;html=1;" vertex="1" parent="OCblu7KXCJCGsIi4Wwkh-34">
          <mxGeometry x="990" y="850" width="120" height="60" as="geometry" />
        </mxCell>
        <mxCell id="OCblu7KXCJCGsIi4Wwkh-286" value="" style="strokeWidth=2;html=1;shape=mxgraph.flowchart.annotation_2;align=left;labelPosition=right;pointerEvents=1;" vertex="1" parent="OCblu7KXCJCGsIi4Wwkh-34">
          <mxGeometry x="1110" y="860" width="80" height="40" as="geometry" />
        </mxCell>
        <mxCell id="OCblu7KXCJCGsIi4Wwkh-292" value="ยอดเงินสำหรับคำสั่งซื้อนั้นๆ" style="text;html=1;align=center;verticalAlign=middle;whiteSpace=wrap;rounded=0;" vertex="1" parent="OCblu7KXCJCGsIi4Wwkh-34">
          <mxGeometry x="1270" y="770" width="140" height="30" as="geometry" />
        </mxCell>
        <mxCell id="OCblu7KXCJCGsIi4Wwkh-293" value="เก็บค่าไว้เช็คว่ามีคำสั่งซื้อหรือไม่" style="text;html=1;align=center;verticalAlign=middle;whiteSpace=wrap;rounded=0;" vertex="1" parent="OCblu7KXCJCGsIi4Wwkh-34">
          <mxGeometry x="1180" y="865" width="160" height="30" as="geometry" />
        </mxCell>
        <mxCell id="OCblu7KXCJCGsIi4Wwkh-289" value="จำนวนเงินในตู้ + เงินที่ลูกค้าใส่" style="rounded=0;whiteSpace=wrap;html=1;" vertex="1" parent="OCblu7KXCJCGsIi4Wwkh-34">
          <mxGeometry x="2490" y="1650" width="200" height="60" as="geometry" />
        </mxCell>
        <mxCell id="OCblu7KXCJCGsIi4Wwkh-304" value="" style="edgeStyle=orthogonalEdgeStyle;rounded=0;orthogonalLoop=1;jettySize=auto;html=1;" edge="1" parent="OCblu7KXCJCGsIi4Wwkh-34" source="OCblu7KXCJCGsIi4Wwkh-297" target="OCblu7KXCJCGsIi4Wwkh-296">
          <mxGeometry relative="1" as="geometry" />
        </mxCell>
        <mxCell id="OCblu7KXCJCGsIi4Wwkh-297" value="" style="ellipse;whiteSpace=wrap;html=1;aspect=fixed;" vertex="1" parent="OCblu7KXCJCGsIi4Wwkh-34">
          <mxGeometry x="2330" y="1710" width="20" height="20" as="geometry" />
        </mxCell>
        <mxCell id="OCblu7KXCJCGsIi4Wwkh-300" style="edgeStyle=orthogonalEdgeStyle;rounded=0;orthogonalLoop=1;jettySize=auto;html=1;exitX=0.5;exitY=1;exitDx=0;exitDy=0;entryX=1;entryY=1;entryDx=0;entryDy=0;" edge="1" parent="OCblu7KXCJCGsIi4Wwkh-34" source="OCblu7KXCJCGsIi4Wwkh-289" target="OCblu7KXCJCGsIi4Wwkh-297">
          <mxGeometry relative="1" as="geometry" />
        </mxCell>
        <mxCell id="OCblu7KXCJCGsIi4Wwkh-301" style="edgeStyle=orthogonalEdgeStyle;rounded=0;orthogonalLoop=1;jettySize=auto;html=1;exitX=0.5;exitY=1;exitDx=0;exitDy=0;entryX=0.621;entryY=0.077;entryDx=0;entryDy=0;entryPerimeter=0;" edge="1" parent="OCblu7KXCJCGsIi4Wwkh-34" source="OCblu7KXCJCGsIi4Wwkh-278" target="OCblu7KXCJCGsIi4Wwkh-284">
          <mxGeometry relative="1" as="geometry" />
        </mxCell>
        <mxCell id="OCblu7KXCJCGsIi4Wwkh-305" value="" style="edgeStyle=orthogonalEdgeStyle;rounded=0;orthogonalLoop=1;jettySize=auto;html=1;" edge="1" parent="OCblu7KXCJCGsIi4Wwkh-34" source="OCblu7KXCJCGsIi4Wwkh-296" target="OCblu7KXCJCGsIi4Wwkh-283">
          <mxGeometry relative="1" as="geometry" />
        </mxCell>
        <mxCell id="OCblu7KXCJCGsIi4Wwkh-296" value="a + ราคาสินค้า" style="rounded=0;whiteSpace=wrap;html=1;" vertex="1" parent="OCblu7KXCJCGsIi4Wwkh-34">
          <mxGeometry x="2295" y="1800" width="95" height="40" as="geometry" />
        </mxCell>
        <mxCell id="OCblu7KXCJCGsIi4Wwkh-306" value="&lt;span style=&quot;font-size: 15px;&quot;&gt;สิ้นสุด&lt;/span&gt;" style="strokeWidth=1;html=1;shape=mxgraph.flowchart.terminator;whiteSpace=wrap;" vertex="1" parent="OCblu7KXCJCGsIi4Wwkh-34">
          <mxGeometry x="2400" y="2130" width="130" height="60" as="geometry" />
        </mxCell>
        <mxCell id="OCblu7KXCJCGsIi4Wwkh-307" style="edgeStyle=orthogonalEdgeStyle;rounded=0;orthogonalLoop=1;jettySize=auto;html=1;entryX=0.5;entryY=0;entryDx=0;entryDy=0;entryPerimeter=0;" edge="1" parent="OCblu7KXCJCGsIi4Wwkh-34" source="OCblu7KXCJCGsIi4Wwkh-283" target="OCblu7KXCJCGsIi4Wwkh-306">
          <mxGeometry relative="1" as="geometry" />
        </mxCell>
        <mxCell id="OCblu7KXCJCGsIi4Wwkh-287" value="&lt;font data-font-src=&quot;https://fonts.googleapis.com/css?family=Sarabun&quot; face=&quot;Sarabun&quot;&gt;โจทย์ปัญหา&lt;/font&gt;" style="swimlane;whiteSpace=wrap;html=1;" vertex="1" parent="1">
          <mxGeometry x="-720" y="320" width="640" height="240" as="geometry" />
        </mxCell>
        <mxCell id="OCblu7KXCJCGsIi4Wwkh-288" value="&lt;font data-font-src=&quot;https://fonts.googleapis.com/css?family=Sarabun&quot; face=&quot;Sarabun&quot; style=&quot;font-size: 14px;&quot;&gt;จงเขียน Flowchart เพื่อแสดงขั้นตอนการทำงาน ของเครื่องขายน้ำอัตโนมัติที่ชื่อว่า &quot;ตะพาบลอย&quot;&lt;br&gt;โดยจะต้องมีสินค้าดังนี้&lt;br&gt;&lt;u&gt;ประเภทน้ำ&lt;span style=&quot;white-space: pre;&quot;&gt;&#x9;&lt;/span&gt;&lt;span style=&quot;white-space: pre;&quot;&gt;&#x9;&lt;/span&gt;&lt;span style=&quot;white-space: pre;&quot;&gt;&#x9;&lt;/span&gt;&lt;span style=&quot;white-space: pre;&quot;&gt;&#x9;&lt;/span&gt;&lt;span style=&quot;white-space: pre;&quot;&gt;&#x9;&lt;/span&gt;&lt;span style=&quot;white-space: pre;&quot;&gt;&#x9;&lt;span style=&quot;white-space: pre;&quot;&gt;&#x9;&lt;/span&gt;ข&lt;/span&gt;นม&lt;/u&gt;&lt;br&gt;&lt;span style=&quot;white-space: pre;&quot;&gt;&#x9;&lt;/span&gt;- โค้ก กระป๋องละ 10 บาท&lt;span style=&quot;white-space: pre;&quot;&gt;&#x9;&lt;/span&gt;&lt;span style=&quot;white-space: pre;&quot;&gt;&#x9;&lt;/span&gt;&lt;span style=&quot;white-space: pre;&quot;&gt;&#x9;&lt;/span&gt;&lt;span style=&quot;white-space: pre;&quot;&gt;&#x9;&lt;/span&gt;- เมล็ดทานตะวัน 13 บาท&lt;br&gt;&lt;span style=&quot;white-space: pre;&quot;&gt;&#x9;&lt;/span&gt;- น้ำเขียว กระป๋องละ 12 บาท&lt;span style=&quot;white-space: pre;&quot;&gt;&#x9;&lt;/span&gt;&lt;span style=&quot;white-space: pre;&quot;&gt;&#x9;&lt;/span&gt;&lt;span style=&quot;white-space: pre;&quot;&gt;&#x9;&lt;/span&gt;- ถั่วแปบ 20 บาท&lt;br&gt;&lt;span style=&quot;white-space: pre;&quot;&gt;&#x9;&lt;/span&gt;- อเมริกาโน่ 30 บาท&lt;span style=&quot;white-space: pre;&quot;&gt;&#x9;&lt;/span&gt;&lt;span style=&quot;white-space: pre;&quot;&gt;&#x9;&lt;/span&gt;&lt;span style=&quot;white-space: pre;&quot;&gt;&#x9;&lt;/span&gt;&lt;span style=&quot;white-space: pre;&quot;&gt;&#x9;&lt;/span&gt;&lt;span style=&quot;white-space: pre;&quot;&gt;&#x9;&lt;/span&gt;- จิ้นส้มหมก 15 บาท&lt;br&gt;&lt;span style=&quot;white-space: pre;&quot;&gt;&#x9;&lt;/span&gt;- ลาเต้ หวานเจี๊ยบ 35 บาท&lt;span style=&quot;white-space: pre;&quot;&gt;&#x9;&lt;/span&gt;&lt;br&gt;&lt;br&gt;&lt;u&gt;สิ่งที่ระบบควรจะทำได้&lt;/u&gt;&lt;br&gt;&lt;span style=&quot;white-space: pre;&quot;&gt;&#x9;&lt;/span&gt;- ลูกค้าเลือกสินค้า, ระบบจะต้องรวมยอดขาย และรวมรายการสินค้าทั้งหมดที่ลูกค้าเลือก&lt;br&gt;&lt;span style=&quot;white-space: pre;&quot;&gt;&#x9;&lt;/span&gt;- สรุปยอดว่าเหลือเงินในตู้อีกเท่าไหร่ เหลือเหรียญอะไรบ้าง? ธนบัตรอะไรบ้าง? อย่างละเท่าไหร่?&lt;br&gt;&lt;br&gt;&lt;br&gt;&lt;/font&gt;" style="text;html=1;align=left;verticalAlign=middle;resizable=0;points=[];autosize=1;strokeColor=none;fillColor=none;fontSize=14;" vertex="1" parent="OCblu7KXCJCGsIi4Wwkh-287">
          <mxGeometry x="25" y="20" width="580" height="240" as="geometry" />
        </mxCell>
      </root>
    </mxGraphModel>
  </diagram>
</mxfile>
